<svg width="2000" height="2000"
     xmlns="http://www.w3.org/2000/svg" version="1.1">
<style>path {fill-opacity:1; stroke:none;}</style>
<path d="M 350,1372L 350,1515L 350.248,1516.5039L 350.6777,1519.6445L 351,1523L 351.2656,1524.2344L 351.7656,1526.7344L 352,1528L 352.334,1529.332L 353,1532L 353.334,1533.332L 354,1536L 355,1538.4688L 356,1541L 357,1543L 358,1545L 359.334,1547L 360,1548L 361.334,1550L 362,1551L 363,1552L 364,1553L 365,1554L 366,1555L 367,1556L 368,1556.666L 370,1558L 371,1558.666L 373,1560L 375,1561L 377,1562L 379,1563L 380.2656,1563.5L 382.7656,1564.5L 384,1565L 385.3887,1565.376L 388.1816,1566.1611L 391,1567L 392.2656,1567.2344L 394.7656,1567.7344L 396,1568L 397.2656,1568.2344L 399.7656,1568.7344L 401,1569L 403.8594,1569.3223L 406.6367,1569.752L 408,1570L 409.8242,1570.0879L 413.3164,1570.3418L 416.4922,1570.7539L 418,1571L 419.6211,1571.002L 423.082,1571.0215L 426.7813,1571.1094L 430.3125,1571.3438L 433.4922,1571.7539L 435,1572L 514,1572L 515.5078,1571.7539L 518.6875,1571.3438L 522.2188,1571.1094L 525.918,1571.0215L 529.3789,1571.002L 531,1571L 532.5078,1570.7539L 535.6836,1570.3418L 539.1758,1570.0879L 541,1570L 542.3633,1569.752L 545.1406,1569.3223L 548,1569L 549.4688,1568.7344L 552.4688,1568.2344L 554,1568L 555.332,1567.666L 558,1567L 559.332,1566.666L 562,1566L 565,1565L 568,1564L 570,1563L 572,1562L 574,1561L 576,1560L 578,1559L 580,1557.666L 581,1557L 582,1556L 583,1555L 584,1554L 585,1553L 586,1552L 587,1551L 588,1550L 588.666,1549L 590,1547L 591,1545L 592,1543L 593,1541L 594,1539L 595,1537L 595.376,1535.6113L 596.1611,1532.8184L 597,1530L 597.2344,1528.7344L 597.7344,1526.2344L 598,1525L 598.2344,1523.4688L 598.7344,1520.4688L 599,1519L 599.1074,1515.2148L 599.3438,1511.6875L 599.7539,1508.5078L 600,1507L 600,1372L 539,1372L 539,1477L 538.998,1480.9961L 538.9785,1484.957L 538.8906,1488.7813L 538.6563,1492.3125L 538.2461,1495.4922L 538,1497L 537.7964,1498.4316L 537.5443,1499.8445L 537.2314,1501.2294L 536.4728,1503.9242L 535.9574,1505.1769L 534.7928,1507.548L 534.0828,1508.5829L 533.3166,1509.5323L 531.6803,1511.2661L 530.7608,1511.9817L 528.8152,1513.2978L 526.6448,1514.4202L 524.2478,1515.397L 522.9596,1515.8206L 520.3679,1516.6016L 517.7978,1517.2451L 515.2656,1517.7656L 512.5547,1518.2461L 509.6055,1518.6582L 506.5508,1518.9121L 505,1519L 503.4922,1519.2461L 500.3125,1519.6563L 496.7813,1519.8906L 492.957,1519.9785L 488.9961,1519.998L 485,1520L 464,1520L 460.0039,1519.998L 456.043,1519.9785L 452.2188,1519.8906L 448.6875,1519.6563L 445.5078,1519.2461L 444,1519L 442.4492,1518.9121L 439.3945,1518.6582L 437.9199,1518.4521L 436.501,1518.2329L 435.1382,1518.0027L 432.4863,1517.5088L 431.1943,1517.2163L 429.8967,1516.8929L 427.3057,1516.1833L 426.0369,1515.7639L 423.5696,1514.8552L 421.2729,1513.8024L 420.2341,1513.2012L 419.2571,1512.5597L 418.341,1511.8738L 416.6264,1510.4031L 415.1417,1508.7102L 414.5147,1507.7263L 413.3795,1505.6056L 412.4769,1503.181L 411.7991,1500.4348L 411.3477,1497.3086L 411.1094,1493.7813L 411.0215,1489.957L 411.002,1485.9961L 411,1482L 411,1372Z" style="fill:rgb(0,0,0);"/>
<path d="M 659,1111L 661,1112L 663,1113L 665.668,1113.666L 667,1114L 673,1114L 674.332,1113.666L 677,1113L 680,1112L 682,1110.666L 683,1110L 684,1109L 685,1108L 686,1107L 687,1106L 688,1105L 689,1104L 690,1103L 691,1102L 692,1101L 693,1100L 694,1099L 695,1098L 697,1096.002L 699,1094.0215L 701,1092.1094L 703,1090.3438L 705,1088.7539L 706,1088L 707,1087L 708,1086L 709,1085L 710,1084L 711,1083L 712,1082L 713,1081L 714,1080L 715,1079L 716,1078L 717,1077L 718,1076L 719,1075L 720,1074L 721,1073L 722,1072L 723,1071L 724,1070L 725,1069L 726,1068L 727,1067L 728,1066L 729,1065L 730,1064L 731,1063L 732,1062L 733,1061L 734,1060L 735,1059L 736,1058L 737,1057L 738,1056L 739,1055L 740,1054L 741,1053L 742,1052L 743,1051L 744,1050L 745,1049L 746,1048L 747,1047L 749,1045.002L 751,1043.0215L 753,1041.1094L 755,1039.3438L 756,1038.5488L 757.0078,1037.7864L 758.0317,1037.0608L 760.1309,1035.7075L 761.2473,1035.16L 762.4031,1034.7098L 763.5887,1034.3703L 765.9919,1033.933L 768.4008,1034.005L 770.7167,1034.6044L 771.8095,1035.134L 773.9421,1036.3432L 775.9909,1037.7799L 778,1039.3491L 780,1041L 781,1041.7686L 783,1043.3491L 785,1045L 787,1046.4844L 789,1048L 791,1049.4844L 793,1051L 795,1052.4844L 797,1054L 798,1054.6743L 800,1056.0493L 802,1057.4927L 804,1059L 805,1059.666L 807,1061L 808,1061.666L 810,1063L 811,1063.666L 813,1065L 814,1065.666L 816,1067L 817,1067.5703L 818,1068.1611L 820,1069.3828L 822,1070.6729L 824,1072L 825,1072.5703L 827,1073.752L 829,1075L 830,1075.5176L 832,1076.5898L 834,1077.7539L 836,1079L 837,1079.5L 839,1080.502L 841,1081.5195L 843,1082.5898L 845,1083.7539L 847,1085L 849,1086L 851,1087L 853,1088L 855,1089L 857,1090L 859,1091L 860.2256,1091.5L 861.4189,1092L 863.7332,1093L 864.8204,1093.5L 866.9426,1094.5L 868.9871,1095.5L 870.9983,1096.5L 872,1097L 874.4521,1098L 876.7852,1099L 879,1100L 880.2656,1100.5L 882.7656,1101.5L 884,1102L 885.2656,1102.5L 887.7656,1103.5L 889,1104L 890.4121,1104.5L 893.1582,1105.5L 895.7461,1106.5L 897,1107L 900,1108L 903,1109L 906,1110L 909,1111L 912,1112L 915,1113L 916.3887,1113.376L 919.1816,1114.1611L 922,1115L 923.3887,1115.376L 926.1816,1116.1611L 929,1117L 931.668,1117.666L 933,1118L 935.668,1118.666L 937,1119L 939.668,1119.666L 941,1120L 943.668,1120.666L 945,1121L 946.2656,1121.2344L 948.7656,1121.7344L 950,1122L 951.2656,1122.2344L 953.7656,1122.7344L 955,1123L 956.2656,1123.2344L 958.7656,1123.7344L 960,1124L 961.2656,1124.2344L 963.7656,1124.7344L 965,1125L 966.5313,1125.2344L 969.5313,1125.7344L 971,1126L 973.8594,1126.3223L 976.6367,1126.752L 978,1127L 981.3555,1127.3223L 984.4961,1127.752L 986,1128L 987.5508,1128.0879L 990.6055,1128.3418L 993.5547,1128.7539L 995,1129L 998.7852,1129.1074L 1002.3125,1129.3438L 1005.4922,1129.7539L 1007,1130L 1064,1130L 1065.5078,1129.7539L 1068.6875,1129.3438L 1072.2148,1129.1074L 1076,1129L 1077.4453,1128.7539L 1080.3945,1128.3418L 1083.4492,1128.0879L 1085,1128L 1086.3633,1127.752L 1089.1406,1127.3223L 1092,1127L 1093.3633,1126.752L 1096.1406,1126.3223L 1099,1126L 1100.4688,1125.7344L 1103.4688,1125.2344L 1105,1125L 1106.4688,1124.7344L 1109.4688,1124.2344L 1111,1124L 1112.2344,1123.7344L 1114.7344,1123.2344L 1116,1123L 1117.2344,1122.7344L 1119.7344,1122.2344L 1121,1122L 1122.332,1121.666L 1125,1121L 1126.332,1120.666L 1129,1120L 1130.332,1119.666L 1133,1119L 1134.332,1118.666L 1137,1118L 1138.332,1117.666L 1141,1117L 1142.332,1116.666L 1145,1116L 1146.4141,1115.5703L 1149.2227,1114.752L 1152,1114L 1155,1113L 1158,1112L 1161,1111L 1164,1110L 1167,1109L 1170,1108L 1173,1107L 1176,1106L 1178.4688,1105L 1181,1104L 1183.4688,1103L 1186,1102L 1188.4688,1101L 1191,1100L 1193.4688,1099L 1196,1098L 1198.0391,1097L 1200.1797,1096L 1202.5078,1095L 1205,1094L 1207,1093L 1209,1092L 1211,1091L 1213,1090L 1215,1089L 1217,1088L 1219,1087L 1221,1086L 1223,1085L 1225,1084L 1227,1083L 1228,1082.3872L 1230,1081.1938L 1232,1080.073L 1234,1079.019L 1236,1078L 1238,1076.7744L 1240,1075.6128L 1242,1074.5269L 1243,1074L 1245,1072.6753L 1247,1071.3848L 1249,1070.1616L 1251,1069L 1253,1067.666L 1254,1067L 1256,1065.666L 1257,1065L 1259,1063.666L 1260,1063L 1262,1061.666L 1263,1061L 1265,1059.666L 1266,1059L 1268,1057.666L 1269,1057L 1271,1055.666L 1272,1055L 1273,1054.2344L 1275,1052.7344L 1276,1052L 1277,1051.2344L 1279,1049.7344L 1280,1049L 1281,1048.2344L 1283,1046.7344L 1284,1046L 1286,1044.3223L 1288,1042.752L 1289,1042L 1291,1040.3223L 1293,1038.752L 1294,1038L 1295,1037.0879L 1297,1035.3418L 1299,1033.7539L 1300,1033L 1302,1031.0215L 1304,1029.1094L 1306,1027.3438L 1308,1025.7539L 1309,1025L 1310,1024L 1311,1023L 1312,1022L 1313,1021L 1314,1020L 1315,1019L 1316,1018L 1317,1017L 1318,1016L 1319,1015L 1320,1014L 1321,1013L 1322,1012L 1323,1011L 1324,1010L 1325,1009L 1326,1008L 1327,1007L 1328,1006L 1329,1005L 1330,1004L 1331,1003L 1332,1002L 1333,1001L 1334,1000L 1335,999L 1336,998L 1336.8036,997L 1338.4545,995L 1340.2096,993L 1342.0726,991L 1344,989L 1345.5776,987L 1347.2444,985L 1349,983L 1349.7686,982L 1351.3491,980L 1353,978L 1353.7686,977L 1355.3491,975L 1357,973L 1358.4844,971L 1360,969L 1361.4844,967L 1363,965L 1364.4844,963L 1366,961L 1366.666,960L 1368,958L 1368.666,957L 1370,955L 1370.666,954L 1372,952L 1372.666,951L 1374,949L 1374.666,948L 1376,946L 1376.666,945L 1378,943L 1378.666,942L 1380,940L 1380.5703,939L 1381.1611,938L 1382.3828,936L 1383.6729,934L 1385,932L 1385.5176,931L 1386.5898,929L 1387.7539,927L 1389,925L 1389.502,924L 1390.5195,922L 1391.5898,920L 1392.7539,918L 1394,916L 1395,914L 1396,912L 1397,910L 1398,908L 1399,906L 1400,904L 1401,902L 1402,900L 1403,898L 1404,896L 1405,894L 1405.5,892.7744L 1406.5,890.3877L 1407.5,888.1455L 1408.5,886.0322L 1409,885L 1409.5,883.7344L 1410.5,881.2344L 1411,880L 1411.5,878.7344L 1412.5,876.2344L 1413,875L 1413.5,873.7344L 1414.5,871.2344L 1415,870L 1415.5,868.7344L 1416.5,866.2344L 1417,865L 1418,862L 1419,859L 1420,856L 1421,853L 1422,850L 1423,847L 1424,844L 1425,841L 1425.376,839.6113L 1426.1611,836.8184L 1427,834L 1427.666,831.332L 1428,830L 1428.666,827.332L 1429,826L 1429.666,823.332L 1430,822L 1430.666,819.332L 1431,818L 1431.666,815.332L 1432,814L 1432.4902,811.4688L 1433.0449,808.918L 1433.6719,806.3164L 1434,805L 1434.2344,803.4688L 1434.7344,800.4688L 1435.2344,797.7344L 1435.7344,795.2344L 1436,794L 1436.2344,792.4688L 1436.7344,789.4688L 1437,788L 1437.3223,785.1406L 1437.752,782.3633L 1438,781L 1438.3223,777.6445L 1438.752,774.5039L 1439,773L 1439.0879,771.4492L 1439.3418,768.3945L 1439.7539,765.4453L 1440,764L 1440.0195,762.3516L 1440.1094,759L 1440.3438,755.6563L 1440.7539,752.5078L 1441,751L 1441,698L 1440.7539,696.4922L 1440.3438,693.3125L 1440.1074,689.7852L 1440,686L 1439.7539,684.4922L 1439.3418,681.3164L 1439.0879,677.8242L 1439,676L 1438.752,674.4961L 1438.3223,671.3555L 1438,668L 1437.7344,666.5313L 1437.2344,663.5313L 1437,662L 1436.752,660.6367L 1436.3223,657.8594L 1436,655L 1435.7344,653.7656L 1435.2344,651.2656L 1435,650L 1434.7344,648.7656L 1434.2344,646.2656L 1434,645L 1433.7344,643.7656L 1433.2344,641.2656L 1433,640L 1432.7344,638.7656L 1432.2344,636.2656L 1432,635L 1431.666,633.668L 1431,631L 1430.666,629.668L 1430,627L 1429.666,625.668L 1429,623L 1428.666,621.668L 1428,619L 1427.666,617.668L 1427,615L 1426.5703,613.5859L 1425.752,610.7773L 1425,608L 1424,605L 1423,602L 1422,599L 1421,596L 1420,593L 1419,590L 1418,587L 1417,584L 1416,581.5313L 1415,579L 1414,576.5313L 1413,574L 1412,571.5313L 1411,569L 1410,566.5313L 1409,564L 1408,561.9609L 1407,559.8203L 1406,557.4922L 1405,555L 1404,553L 1403,551L 1402,549L 1401,547L 1400,545L 1399,543L 1398,541L 1397,539L 1396,537L 1395,535L 1394,533L 1393,531L 1391.7744,529L 1390.6128,527L 1389.5269,525L 1389,524L 1387.7744,522L 1386.6128,520L 1385.5269,518L 1385,517L 1384.376,516L 1383.1611,514L 1382,512L 1380.666,510L 1380,509L 1378.6753,507L 1377.3848,505L 1376.1616,503L 1375,501L 1373.666,499L 1373,498L 1371.4902,496L 1370.0449,494L 1369.3584,493L 1368.002,491L 1366.666,489L 1366,488L 1365.2344,487L 1363.7344,485L 1363,484L 1362.2344,483L 1360.7344,481L 1360,480L 1359.2344,479L 1357.7344,477L 1357,476L 1355.3223,474L 1353.752,472L 1353,471L 1351.3223,469L 1349.752,467L 1349,466L 1348.0879,465L 1346.3418,463L 1344.7539,461L 1344,460L 1343,459L 1342,458L 1341,457L 1340,456L 1339,455L 1338,454L 1337,453L 1336,452L 1334,451L 1332,450L 1330,449L 1318,449L 1315,450L 1313,451L 1311,452L 1310,453L 1309,454L 1308,455L 1307,456L 1306,457L 1305,458L 1304,459L 1303,460L 1302,461L 1301,462L 1300,463L 1299,464L 1298,465L 1297,466L 1296,467L 1295,468L 1294,469L 1293,470L 1291,471.998L 1289,473.9785L 1287,475.8906L 1285,477.6563L 1283,479.2461L 1282,480L 1281,481L 1280,482L 1279,483L 1278,484L 1277,485L 1276,486L 1275,487L 1274,488L 1273,489L 1272,490L 1271,491L 1270,492L 1269,493L 1268,494L 1267,495L 1266,496L 1265,497L 1264,498L 1263,499L 1262,500L 1261,501L 1260,502L 1259,503L 1258,504L 1257,505L 1256,506L 1255,507L 1254,508L 1253,509L 1252,510L 1251,511L 1250,512L 1249,513L 1248,514L 1247,515L 1245,516.998L 1243,518.9785L 1241,520.8906L 1238.9961,522.6543L 1237.9785,523.436L 1236.9365,524.1702L 1234.7891,525.5427L 1233.6455,526.1177L 1231.2881,527.0986L 1228.8076,527.6597L 1226.2568,527.6772L 1224.9924,527.411L 1223.7601,527.0359L 1221.3721,526.1034L 1219.1396,524.8626L 1217.0372,523.3966L 1215.0062,521.7533L 1213,520L 1212,519.2314L 1210,517.6509L 1208,516L 1206,514.5156L 1204,513L 1202,511.5156L 1200,510L 1198,508.5156L 1196,507L 1194,505.5156L 1192,504L 1191,503.334L 1189,502L 1188,501.334L 1186,500L 1185,499.334L 1183,498L 1182,497.334L 1180,496L 1179,495.334L 1177,494L 1176,493.334L 1174,492L 1173,491.4297L 1172,490.8389L 1170,489.6172L 1168,488.3271L 1166,487L 1165,486.4297L 1163,485.248L 1161,484L 1160,483.498L 1158,482.4805L 1156,481.4102L 1154,480.2461L 1152,479L 1150,478L 1148,477L 1146,476L 1144,475L 1142,474L 1140,473L 1138,472L 1136,471L 1134,470L 1132,469L 1130,468L 1128,467L 1126,466L 1124,465L 1122.7744,464.5L 1120.3877,463.5L 1118.1455,462.5L 1116.0322,461.5L 1115,461L 1113.7344,460.5L 1111.2344,459.5L 1110,459L 1108.7344,458.5L 1106.2344,457.5L 1105,457L 1103.7344,456.5L 1101.2344,455.5L 1100,455L 1098.502,454.5L 1095.5215,453.5L 1092.6094,452.5L 1089.8438,451.5L 1087.2539,450.5L 1086,450L 1083,449L 1081.6025,448.6128L 1078.7842,447.8062L 1075.9087,446.927L 1072.9727,445.981L 1070,445L 1067.3184,444.3271L 1064.5977,443.6172L 1061.8184,442.8389L 1059,442L 1056.332,441.334L 1055,441L 1052.332,440.334L 1051,440L 1048.4688,439.5098L 1045.918,438.9551L 1043.3164,438.3281L 1042,438L 1040.7344,437.7656L 1038.2344,437.2656L 1037,437L 1035.7344,436.7656L 1033.2344,436.2656L 1032,436L 1030.4688,435.7656L 1027.4688,435.2656L 1026,435L 1024.4688,434.7656L 1021.4688,434.2656L 1020,434L 1017.1406,433.6777L 1014.3633,433.248L 1013,433L 1010.1406,432.6777L 1007.3633,432.248L 1006,432L 1004.1758,431.9121L 1000.6836,431.6582L 997.5078,431.2461L 996,431L 992.2148,430.8926L 988.6875,430.6563L 985.5078,430.2461L 984,430L 929,430L 927.4922,430.2461L 924.3438,430.6563L 921,430.8906L 917.6484,430.9805L 916,431L 914.5547,431.2461L 911.6055,431.6582L 908.5508,431.9121L 907,432L 905.6367,432.248L 902.8594,432.6777L 900,433L 898.6367,433.248L 895.8594,433.6777L 893,434L 891.5313,434.2656L 888.5313,434.7656L 887,435L 885.5313,435.2656L 882.5313,435.7656L 881,436L 879.7656,436.2656L 877.2656,436.7656L 876,437L 874.7656,437.2656L 872.2656,437.7656L 871,438L 868.3633,438.6543L 865.7949,439.2529L 863.2656,439.7656L 862,440L 860.668,440.334L 858,441L 856.668,441.334L 854,442L 852.5859,442.4297L 849.7773,443.248L 847,444L 845.5859,444.4297L 842.7773,445.248L 840,446L 837,447L 834,448L 831,449L 828,450L 825,451L 822,452L 819,453L 816,454L 814.7461,454.5L 812.1582,455.5L 809.4121,456.5L 808,457L 805.5313,458L 803,459L 800.8242,460L 798.4922,461L 796,462L 793.8242,463L 791.4922,464L 789,465L 787,466L 785,467L 783,468L 781,469L 779,470L 777,471L 775,472L 773,473L 771,474L 769,475L 767,476L 765,477L 763,478L 761,479L 759,480.2256L 757,481.3872L 755,482.4731L 754,483L 753,483.624L 751,484.8389L 749,486L 748,486.624L 746,487.8389L 744,489L 742,490.3247L 740,491.6152L 738,492.8384L 736,494L 734,495.334L 733,496L 731,497.334L 730,498L 728,499.334L 727,500L 725,501.5098L 723,502.9551L 721,504.3281L 720,505L 718,506.5098L 716,507.9551L 714,509.3281L 713,510L 711,511.6777L 709,513.248L 708,514L 707,514.7656L 705,516.2656L 704,517L 702,518.6777L 700,520.248L 699,521L 698,521.9121L 696,523.6582L 694,525.2461L 693,526L 692,526.9805L 690,528.8906L 688,530.6563L 686,532.2461L 685,533L 684,534L 683,535L 682,536L 681,537L 680,538L 679,539L 678,540L 677,541L 676,542L 675,543L 674,544L 673,545L 672,546L 671,547L 670,548L 669,549L 668,550L 667,551L 666,552L 665,553L 664,554L 663,555L 662,556L 661,557L 660,558L 659,559L 658,560L 657,561L 656,562L 655,563L 654,564L 652.3928,566L 650.6992,568L 648.8889,570L 647,572L 645.4224,574L 643.7556,576L 642,578L 641.2314,579L 639.6509,581L 638,583L 637.2314,584L 635.6509,586L 634,588L 632.5156,590L 631,592L 629.5156,594L 628,596L 627.3257,597L 625.9507,599L 624.5073,601L 623,603L 622.334,604L 621,606L 620.334,607L 619,609L 618.334,610L 617,612L 616.334,613L 615,615L 614.334,616L 613,618L 612.4297,619L 611.8389,620L 610.6172,622L 609.3271,624L 608,626L 607.4297,627L 606.248,629L 605,631L 604.4824,632L 603.4102,634L 602.2461,636L 601,638L 600,640L 599,642L 598,644L 597,646L 596,648L 595,650L 594,652L 593,654L 592,656L 591,658L 590,660L 589,662L 588,664L 587,666L 586,668L 585,670L 584,672.4521L 583,674.7852L 582,677L 581,679.4521L 580,681.7852L 579,684L 578.5,685.4121L 577.5,688.1582L 576.5,690.7461L 576,692L 575.5,693.2656L 574.5,695.7656L 574,697L 573,700L 572,703L 571,706L 570,709L 569,712L 568,715L 567.2256,717.7949L 566.3872,720.6357L 565.4731,723.5361L 565,725L 564.334,727.668L 564,729L 563.334,731.668L 563,733L 562.334,735.668L 562,737L 561.334,739.668L 561,741L 560.334,743.668L 560,745L 559.5098,747.5313L 558.9551,750.082L 558.3281,752.6836L 558,754L 557.7656,755.2656L 557.2656,757.7656L 557,759L 556.7656,760.5313L 556.2656,763.5313L 556,765L 555.7656,766.5313L 555.2656,769.5313L 555,771L 554.7656,772.5313L 554.2656,775.5313L 554,777L 553.6777,780.3555L 553.248,783.4961L 553,785L 552.9121,786.5508L 552.6582,789.6055L 552.2461,792.5547L 552,794L 551.8926,797.7852L 551.6563,801.3125L 551.2461,804.4922L 551,806L 551,808L 550.998,811.9961L 550.9785,815.957L 550.8906,819.7813L 550.6563,823.3125L 550.2461,826.4922L 550,828L 550,843L 550.2461,844.5078L 550.6563,847.6875L 550.8906,851.2188L 550.9785,855.043L 550.998,859.0039L 551,863L 551,865L 551.2461,866.5078L 551.6563,869.6875L 551.8926,873.2148L 552,877L 552.2461,878.4453L 552.6582,881.3945L 552.9121,884.4492L 553,886L 553.248,887.3633L 553.6777,890.1406L 554,893L 554.248,894.3633L 554.6777,897.1406L 555,900L 555.2656,901.4688L 555.7656,904.4688L 556,906L 556.2656,907.2344L 556.7656,909.7344L 557.2656,912.4688L 557.7656,915.4688L 558,917L 558.6543,919.6367L 559.2529,922.2051L 559.7656,924.7344L 560,926L 560.334,927.332L 561,930L 561.334,931.332L 562,934L 562.334,935.332L 563,938L 563.334,939.332L 564,942L 564.334,943.332L 565,946L 565.4824,947.4727L 566.4102,950.3828L 567.2461,953.2188L 568,956L 569,959L 570,962L 571,965L 572,968L 573,971L 574,974L 574.5,975.2539L 575.5,977.8418L 576.5,980.5879L 577,982L 578,984.4688L 579,987L 580,989.4688L 581,992L 582,994.1758L 583,996.5078L 584,999L 585,1001L 586,1003.0039L 587,1005.0391L 588,1007.1797L 589,1009.5078L 590,1012L 591,1014L 592,1016L 593,1018L 594,1020L 595,1022L 596,1024L 596.6128,1025L 597.8062,1027L 598.3666,1028L 599.4539,1030L 600.4888,1032L 601.4984,1034L 602,1035L 602.624,1036L 603.8389,1038L 605,1040L 605.624,1041L 606.8389,1043L 608,1045L 608.624,1046L 609.8389,1048L 611,1050L 612.3247,1052L 613.6152,1054L 614.8384,1056L 616,1058L 617.334,1060L 618,1061L 619.5098,1063L 620.9551,1065L 621.6416,1066L 622.998,1068L 624.334,1070L 625,1071L 626.5098,1073L 627.9551,1075L 629.3281,1077L 630,1078L 630.7656,1079L 632.2656,1081L 633,1082L 634.6777,1084L 636.248,1086L 637,1087L 638.6777,1089L 640.248,1091L 641,1092L 641.9121,1093L 643.6582,1095L 645.2461,1097L 646,1098L 647.8926,1100L 649.6563,1102L 651.2461,1104L 652,1105L 653,1106L 654,1107L 655,1108L 656,1109L 657,1110ZM 717.7539,858.4922L 717.3438,855.3438L 717.1094,852L 717.0195,848.6484L 717,847L 716.7539,845.4922L 716.3438,842.3125L 716.1113,838.7852L 716.043,835L 716.1113,831.2148L 716.3438,827.6875L 716.7539,824.5078L 717,823L 717.0195,821.3516L 717.1094,818L 717.3438,814.6563L 717.7539,811.5078L 718,810L 718.3223,806.6445L 718.752,803.5039L 719,802L 719.2344,800.4688L 719.7344,797.4688L 720,796L 720.2344,794.4688L 720.7344,791.4688L 720.9844,790.1016L 721.4902,787.4688L 722.0449,784.918L 722.6719,782.3164L 723,781L 723.666,778.332L 724,777L 724.3364,775.6592L 725.0283,772.957L 725.4031,771.5776L 726.1956,768.7808L 726.6343,767.3447L 727.5461,764.4404L 728.5112,761.4854L 729.5017,758.5186L 730.5001,755.6091L 731.5,752.8438L 732.5,750.2539L 733,749L 733.5,747.7344L 734.5,745.2344L 735.5,742.7744L 736.5,740.3877L 737.5,738.1455L 738.5,736.0322L 739,735L 739.5,733.7744L 740.502,731.3877L 741.5195,729.146L 742.5898,727.0386L 743.7539,725.0063L 745,723L 745.502,722L 746.5195,720L 747.5898,718L 748.7539,716L 750,714L 750.5703,713L 751.1611,712L 752.3828,710L 753.6729,708L 754.3364,707L 755.666,705L 756.333,704L 757.6743,702L 759.0493,700L 760.4927,698L 762,696L 763.3643,694L 764.7998,692L 766.3525,690L 768,688L 768.7686,687L 770.3491,685L 772,683L 773.6072,681L 775.3008,679L 777.1111,677L 779,675L 779.8145,674L 780.6476,673L 781.5034,672L 782.3833,671L 783.2863,670L 784.21,669L 786.0931,667.002L 788.0347,665.0215L 790.0106,663.1094L 792.0026,661.3438L 794.0004,659.7539L 795,659L 796,658.0195L 798,656.1094L 800,654.3438L 802,652.7539L 803,652L 804,651.0879L 806,649.3418L 808,647.7539L 809,647L 810,646.2344L 812,644.7344L 813,644L 814,643.2344L 816,641.7344L 817,641L 819,639.4902L 821,638.0449L 822,637.3584L 823,636.6802L 824,636.0076L 826,634.6758L 828,633.3848L 830,632.1616L 832,631L 833,630.376L 835,629.1611L 837,628L 838,627.3872L 840,626.1938L 841,625.6334L 843,624.5461L 844,624.0287L 846,623.0065L 847,622.5037L 849,621.5005L 850,621.0003L 852,620L 854.0039,619L 856.0391,618L 858.1797,617L 860.5078,616L 863,615L 864.0898,614.5L 866.3633,613.5L 868.8633,612.5L 871.5898,611.5L 873,611L 875.5488,610L 876.8877,609.5L 879.6421,608.502L 882.5073,607.5195L 885.3892,606.5898L 888.2192,605.7539L 891,605L 892.4141,604.5703L 893.8184,604.1611L 896.5977,603.3828L 899.3184,602.6729L 900.6592,602.3364L 901.9956,602.0012L 904.6367,601.3457L 907.2051,600.7471L 909.7344,600.2344L 912.4688,599.7344L 915.4688,599.2344L 917,599L 918.4688,598.7344L 921.4688,598.2344L 923,598L 924.5039,597.752L 927.6445,597.3223L 931,597L 932.5078,596.7539L 935.6563,596.3438L 939,596.1094L 942.3516,596.0195L 944,596L 945.5078,595.7539L 948.6875,595.3438L 950.4531,595.2266L 954.127,595.0674L 957.9805,595.0332L 961.7832,595.1104L 965.3125,595.3438L 968.4922,595.7539L 970,596L 973.7852,596.1074L 977.3125,596.3438L 980.4922,596.7539L 982,597L 985.3555,597.3223L 988.4961,597.752L 990,598L 992.8594,598.3223L 995.6367,598.752L 998.2656,599.2344L 1000.7656,599.7344L 1002,600L 1003.2656,600.2344L 1005.7656,600.7344L 1007,601L 1009.5313,601.4902L 1012.082,602.0449L 1014.6973,602.6787L 1017.4023,603.3828L 1020.1816,604.1611L 1023,605L 1024.3975,605.3872L 1025.8066,605.7905L 1028.6516,606.6334L 1031.5381,607.5461L 1034.4072,608.5112L 1037.1592,609.5017L 1039.7463,610.5001L 1041,611L 1042.2656,611.5L 1044.7656,612.5L 1046,613L 1048.4521,614L 1050.7852,615L 1053,616L 1054.2256,616.5L 1055.4189,617L 1057.7332,618L 1058.8204,618.5L 1060.9426,619.5L 1061.9648,620L 1063.9926,621L 1064.9958,621.5L 1066.9995,622.502L 1069,623.5195L 1071,624.5898L 1073,625.7539L 1075,627L 1076,627.5703L 1078,628.752L 1080,630L 1081,630.5703L 1082,631.1611L 1084,632.3828L 1086,633.6729L 1087,634.3364L 1089,635.666L 1090,636.333L 1092,637.6743L 1094,639.0493L 1096,640.4927L 1098,642L 1100,643.4844L 1101,644.2422L 1103,645.7686L 1105,647.3491L 1107,649L 1109,650.5776L 1111,652.2444L 1113,654L 1114,654.8145L 1115,655.6476L 1116,656.5034L 1117,657.3833L 1118,658.2863L 1119,659.21L 1120,660.1516L 1122,662.0639L 1124,664.0227L 1126,666.0066L 1128,668.0015L 1130,670L 1132,670L 1133,669L 1134,668L 1135,667L 1136,666L 1137,665L 1138,664L 1139,663L 1140,662L 1141,661L 1142,660L 1143,659L 1144,658L 1145,657L 1146,656L 1147,655L 1148,654L 1149,653L 1150,652L 1151,651L 1152,650L 1153,649L 1154,648L 1155,647L 1156,646L 1157,645L 1158,644L 1159,643L 1160,642L 1161,641L 1163,639.002L 1165,637.0215L 1167,635.1094L 1169,633.3438L 1171,631.7539L 1172,631L 1173,630L 1174,629L 1175,628L 1176,627L 1177,626L 1178,625L 1179,624L 1180,623L 1181,622L 1182,621L 1183,620L 1184,619L 1185,618L 1186,617L 1187,616L 1188,615L 1189,614L 1190,613L 1191,612L 1192,611L 1193,610L 1194,609L 1195,608L 1196,607L 1197,606L 1198,605L 1199,604L 1200,603L 1201,602L 1202,601L 1203,600L 1204,599L 1205,598L 1206,597L 1207,596L 1209,594.002L 1210,593.0117L 1212,591.0664L 1213,590.1523L 1215.0039,588.4287L 1217.0391,586.9502L 1218.1094,586.3677L 1219.2266,585.884L 1220.3877,585.5121L 1221.5811,585.2632L 1222.7905,585.1452L 1225.2075,585.1797L 1227.5546,585.7557L 1228.6328,586.2973L 1230.655,587.5854L 1232.4092,589.2168L 1233.936,591.0615L 1234.6311,592.0361L 1235.3141,593.0207L 1235.9893,594.0117L 1237.324,596.0013L 1238.6152,598L 1239.8384,600L 1241,602L 1242.2256,604L 1243.3872,606L 1244.4731,608L 1245,609L 1245.6128,610L 1246.8062,612L 1247.3666,613L 1248.4539,615L 1248.9713,616L 1249.9935,618L 1250.9991,620.0039L 1251.9999,622.0391L 1253,624.1797L 1254,626.5078L 1255,629L 1256,631.1758L 1257,633.5078L 1257.5,634.7539L 1258,636.0039L 1259,638.5488L 1259.5,639.8877L 1260.5,642.646L 1261,644.0923L 1262,647.0225L 1262.5,648.5129L 1263.498,651.4979L 1264.4805,654.4689L 1265.4102,657.3828L 1265.8281,658.8008L 1266.6162,661.5957L 1267.3271,664.3184L 1267.6636,665.6592L 1267.9988,666.9956L 1268.6543,669.6367L 1269.2529,672.2051L 1269.7656,674.7344L 1270,676L 1270.2656,677.2344L 1270.7656,679.7344L 1271,681L 1271.2656,682.2344L 1271.7656,684.7344L 1272.248,687.3633L 1272.6777,690.1406L 1273,693L 1273.2461,694.4453L 1273.6582,697.3945L 1273.9121,700.4492L 1274,702L 1274.2461,703.5078L 1274.6563,706.6875L 1274.8906,710.2188L 1274.9785,714.043L 1274.998,718.0039L 1275,720L 1275.3438,722.8828L 1275.4307,725.7637L 1275.1924,728.5996L 1275,730L 1274.998,731.6211L 1274.9785,735.082L 1274.8906,738.7813L 1274.6563,742.3125L 1274.2461,745.4922L 1274,747L 1273.9121,748.5508L 1273.6582,751.6055L 1273.2461,754.5547L 1273,756L 1272.6777,758.8594L 1272.248,761.6367L 1271.7656,764.2656L 1271.2656,766.7656L 1271,768L 1270.7656,769.2656L 1270.2656,771.7656L 1270,773L 1269.5098,775.5313L 1268.9551,778.082L 1268.3281,780.6836L 1268,782L 1267.6636,783.3408L 1266.9717,786.043L 1266.5969,787.4224L 1265.8044,790.2192L 1265.3657,791.6553L 1264.4539,794.5596L 1263.9713,796.0381L 1263.4824,797.5239L 1262.4963,800.5037L 1261.4995,803.4794L 1260.5,806.3907L 1259.5,809.1563L 1259,810.4512L 1258,812.9961L 1257,815.4521L 1256,817.7852L 1255,820L 1254.5,821.2256L 1254,822.4189L 1253,824.7332L 1252.5,825.8204L 1251.5,827.9426L 1251,828.9648L 1250.5,829.9787L 1249.498,831.9958L 1248.4805,833.9995L 1247.4102,836L 1246.2461,838L 1245,840L 1244.4824,841L 1243.4102,843L 1242.2461,845L 1241,847L 1240.4297,848L 1239.8389,849L 1238.6172,851L 1237.3271,853L 1236.6636,854L 1235.334,856L 1234.667,857L 1233.3257,859L 1231.9507,861L 1230.5073,863L 1229,865L 1227.5156,867L 1226.7578,868L 1225.2314,870L 1223.6509,872L 1222,874L 1221.2314,875L 1219.6509,877L 1218,879L 1217.1855,880L 1216.3524,881L 1215.4966,882L 1214.6167,883L 1213.7137,884L 1212.79,885L 1211.8484,886L 1210.8922,887L 1209.9245,888L 1208.9478,889L 1207.9643,890L 1206.9759,891L 1205.9839,892L 1204.9893,893L 1203.993,894L 1202.9954,895L 1201.9971,896L 1200.9981,897L 1198.9995,898.998L 1196.9999,900.9785L 1195,902.8906L 1193,904.6563L 1191,906.2461L 1190,907L 1189,907.9121L 1187,909.6582L 1185,911.2461L 1184,912L 1183,912.7656L 1181,914.2656L 1180,915L 1179,915.7656L 1177,917.2656L 1176,918L 1174,919.5098L 1172,920.9551L 1171,921.6416L 1169,922.998L 1167,924.334L 1166,925L 1164,926.3247L 1162,927.6152L 1160,928.8384L 1158,930L 1156,931.2256L 1154,932.3872L 1152,933.4731L 1151,934L 1150,934.6128L 1148,935.8062L 1147,936.3666L 1145,937.4539L 1144,937.9713L 1142,938.9935L 1139.9961,939.9991L 1137.9609,940.9999L 1135.8203,942L 1133.4922,943L 1131,944L 1128.8242,945L 1126.4922,946L 1125.2461,946.5L 1122.7461,947.5L 1120.1582,948.5L 1117.4121,949.5L 1116,950L 1114.75,950.498L 1112.1875,951.4805L 1109.5078,952.4102L 1106.7598,953.2461L 1104,954L 1102.5273,954.4824L 1099.6172,955.4102L 1098.1992,955.8281L 1095.4043,956.6162L 1094.043,956.9717L 1091.3701,957.6509L 1088.7949,958.2529L 1086.2656,958.7656L 1085,959L 1083.7656,959.2656L 1081.2656,959.7656L 1080,960L 1078.7656,960.2656L 1076.2656,960.7656L 1073.6367,961.248L 1070.8594,961.6777L 1068,962L 1066.4961,962.248L 1063.3555,962.6777L 1060,963L 1058.4922,963.2461L 1055.3438,963.6563L 1052,963.8906L 1048.6484,963.9805L 1047,964L 1045.4922,964.2461L 1042.3125,964.6563L 1040.5781,964.7734L 1037.0605,964.9326L 1033.5195,964.9668L 1030.0293,964.8896L 1026.6563,964.6563L 1023.5078,964.2461L 1022,964L 1018.2148,963.8926L 1014.6875,963.6563L 1011.5078,963.2461L 1010,963L 1006.6445,962.6777L 1003.5039,962.248L 1002,962L 999.1406,961.6777L 996.3633,961.248L 993.7344,960.7656L 991.2344,960.2656L 990,960L 988.7344,959.7656L 986.2344,959.2656L 985,959L 982.4688,958.5098L 979.918,957.9551L 977.3027,957.3213L 974.5977,956.6172L 971.8184,955.8389L 969,955L 967.6025,954.6128L 966.1934,954.2095L 963.3484,953.3666L 960.4619,952.4539L 957.5928,951.4888L 954.8408,950.4983L 952.2537,949.4999L 951,949L 948.2266,948L 945.6133,947L 943.2266,946L 941,945L 939.7744,944.5L 938.5811,944L 936.2668,943L 935.1796,942.5L 933.0574,941.5L 932.0352,941L 930.0074,940L 929.0042,939.5L 927.0005,938.5L 926.0003,938L 925.0001,937.5L 923,936.498L 921,935.4805L 919,934.4102L 917,933.2461L 915,932L 914,931.4297L 913,930.8389L 911,929.6172L 909,928.3271L 907,927L 906,926.4185L 904,925.2173L 902,923.9185L 900,922.5015L 898,921L 897,920.3257L 895,918.9507L 893,917.5073L 891,916L 889,914.5156L 887,912.9958L 885,911.4224L 883,909.7556L 881,908L 880,907.1964L 878,905.5455L 876,903.7904L 874,901.9274L 872,900L 871,899.1964L 869,897.5455L 867,895.7904L 865,893.9274L 863,892L 862,892L 861,893L 860,894L 859,895L 858,896L 857,897L 856,898L 855,899L 854,900L 853,901L 852,902L 851,903L 850,904L 849,905L 848,906L 847,907L 846,908L 845,909L 844,910L 843,911L 842,912L 841,913L 840,914L 839,915L 838,916L 837,917L 836,918L 835,919L 834,920L 833,921L 832,922L 831,923L 830,924L 829,925L 828,926L 827,927L 826,928L 825,929L 823,930.998L 821,932.9785L 819,934.8906L 817,936.6563L 815,938.2461L 814,939L 813,940L 812,941L 811,942L 810,943L 809,944L 808,945L 807,946L 806,947L 805,948L 804,949L 803,950L 802,951L 801,952L 800,953L 799,954L 798,955L 797,956L 796,957L 795,958L 794,959L 793,960L 792,961L 791,962L 790,963L 789,964L 788,965L 787,966L 786,967L 784,968.998L 783,969.9883L 780.9961,971.9336L 779.9785,972.8477L 778.9336,973.7085L 777.8496,974.5032L 776.7202,975.2161L 774.3701,976.4434L 773.1145,976.8252L 771.8384,977.0645L 770.5574,977.1571L 768.0169,977.051L 765.5795,976.3842L 764.4689,975.8055L 762.3938,974.4589L 760.609,972.7975L 759.0688,970.9417L 758.3717,969.9658L 757.6875,968.9803L 757.0115,967.9889L 755.6761,965.9987L 754.3848,964L 753.1616,962L 752,960L 751.376,959L 750.1611,957L 749,955L 748.3872,954L 747.1938,952L 746.6334,951L 745.5461,949L 745.0287,948L 744.0065,946L 743.5037,945L 742.5005,943L 742.0003,942L 741,940L 740,937.9961L 739,935.9609L 738,933.8203L 737,931.4922L 736,929L 735,926.8242L 734,924.4922L 733.5,923.2461L 733,921.9961L 732,919.4512L 731.5,918.1123L 730.5,915.354L 729.502,912.4653L 728.5195,909.5249L 727.5898,906.6167L 726.7539,903.7813L 726,901L 725.5703,899.5859L 725.1611,898.1816L 724.3828,895.4023L 724.0278,894.042L 723.3491,891.3701L 722.7471,888.7949L 722.2344,886.2656L 722,885L 721.3486,882.3027L 720.75,879.5L 720.2354,876.5293L 720,875L 719.752,873.6367L 719.3223,870.8594L 719,868L 718.752,866.4961L 718.3223,863.3555L 718,860Z" style="fill:rgb(0,0,0);"/>
<path d="M 650,1372L 650,1569L 711,1569L 711,1442L 711.001,1440.002L 711.0142,1438.0166L 711.073,1436.0757L 711.243,1434.2458L 711.6229,1432.6383L 712.782,1430.1279L 714.8772,1429.7151L 716.9252,1431.1035L 717.6269,1432.0522L 718.9983,1434.0005L 720.334,1436L 721,1437L 722.5098,1439L 723.9551,1441L 725.3281,1443L 726,1444L 727.5098,1446L 728.9551,1448L 730.3281,1450L 731,1451L 732.5098,1453L 733.9551,1455L 735.3281,1457L 736,1458L 737.5098,1460L 738.9551,1462L 740.3281,1464L 741,1465L 742.5098,1467L 743.9551,1469L 745.3281,1471L 746,1472L 747.5098,1474L 748.9551,1476L 750.3281,1478L 751,1479L 752.5098,1481L 753.9551,1483L 755.3281,1485L 756,1486L 757.5098,1488L 758.9551,1490L 760.3281,1492L 761,1493L 762.5098,1495L 763.9551,1497L 765.3281,1499L 766,1500L 767.5098,1502L 768.9551,1504L 770.3281,1506L 771,1507L 772.5098,1509L 773.9551,1511L 775.3281,1513L 776,1514L 777.5098,1516L 778.9551,1518L 780.3281,1520L 781,1521L 782.5098,1523L 783.9551,1525L 784.6416,1526L 785.998,1528L 787.334,1530L 788,1531L 789.5098,1533L 790.9551,1535L 792.3281,1537L 793,1538L 794.5098,1540L 795.9551,1542L 797.3281,1544L 798,1545L 799.5098,1547L 800.9551,1549L 802.3281,1551L 803,1552L 804.5098,1554L 805.9551,1556L 807.3281,1558L 808,1559L 809.5098,1561L 810.9551,1563L 812.3281,1565L 813,1566L 814,1567L 815,1568L 816,1569L 916,1569L 916,1372L 855,1372L 855,1500L 854.999,1501.998L 854.9731,1505.9541L 854.7815,1509.6333L 854.3441,1511.0515L 853.4525,1512.0436L 851.5043,1512.907L 850.6141,1512.3981L 849.7927,1511.6713L 849.0064,1510.8218L 847.4831,1508.9861L 846.0449,1507L 844.6719,1505L 844,1504L 842.4902,1502L 841.0449,1500L 840.3584,1499L 839.002,1497L 837.666,1495L 837,1494L 835.4902,1492L 834.0449,1490L 832.6719,1488L 832,1487L 830.4902,1485L 829.0449,1483L 827.6719,1481L 827,1480L 825.4902,1478L 824.0449,1476L 822.6719,1474L 822,1473L 820.4902,1471L 819.0449,1469L 817.6719,1467L 817,1466L 815.4902,1464L 814.0449,1462L 813.3584,1461L 812.002,1459L 810.666,1457L 810,1456L 808.4902,1454L 807.0449,1452L 805.6719,1450L 805,1449L 803.4902,1447L 802.0449,1445L 800.6719,1443L 800,1442L 798.4902,1440L 797.0449,1438L 795.6719,1436L 795,1435L 793.4902,1433L 792.0449,1431L 790.6719,1429L 790,1428L 788.4902,1426L 787.0449,1424L 785.6719,1422L 785,1421L 783.4902,1419L 782.0449,1417L 781.3584,1416L 780.002,1414L 778.666,1412L 778,1411L 776.4902,1409L 775.0449,1407L 773.6719,1405L 773,1404L 771.4902,1402L 770.0449,1400L 768.6719,1398L 768,1397L 766.4902,1395L 765.0449,1393L 763.6719,1391L 763,1390L 761.4902,1388L 760.0449,1386L 758.6719,1384L 758,1383L 756.4902,1381L 755.0449,1379L 754.3584,1378L 753.002,1376L 751.666,1374L 751,1373L 750,1372Z" style="fill:rgb(0,0,0);"/>
<path d="M 964,1372L 964,1569L 1026,1569L 1026,1372Z" style="fill:rgb(0,0,0);"/>
<path d="M 1084,1557.666L 1086,1559L 1087,1559.666L 1089,1561L 1091,1562L 1093,1563L 1095,1564L 1098,1565L 1101,1566L 1103.668,1566.666L 1105,1567L 1107.668,1567.666L 1109,1568L 1110.5313,1568.2344L 1113.5313,1568.7344L 1115,1569L 1117.8594,1569.3223L 1120.6367,1569.752L 1122,1570L 1123.8242,1570.0879L 1127.3164,1570.3418L 1130.4922,1570.7539L 1132,1571L 1133.9961,1571.002L 1137.957,1571.0215L 1141.7813,1571.1094L 1145.3125,1571.3438L 1148.4922,1571.7539L 1150,1572L 1242,1572L 1243.5078,1571.7539L 1246.6875,1571.3438L 1250.2188,1571.1094L 1254.043,1571.0215L 1257.7539,1571.002L 1261,1571L 1262.5078,1570.7539L 1265.6836,1570.3418L 1269.1758,1570.0879L 1271,1570L 1272.3633,1569.752L 1275.1406,1569.3223L 1278,1569L 1279.4688,1568.7344L 1282.4688,1568.2344L 1284,1568L 1285.332,1567.666L 1288,1567L 1289.332,1566.666L 1292,1566L 1295,1565L 1298,1564L 1300,1563L 1302,1562L 1304,1561L 1306,1560L 1307,1559.2344L 1309,1557.7344L 1310,1557L 1311,1556L 1312,1555L 1313,1554L 1314,1553L 1315,1552L 1315.666,1551L 1317,1549L 1318,1547L 1319,1545L 1320,1543L 1321,1541L 1322,1538L 1323,1535L 1323.666,1532.332L 1324,1531L 1324.2344,1529.4688L 1324.7344,1526.4688L 1325,1525L 1325.3223,1521.6445L 1325.752,1518.5039L 1326,1517L 1326.002,1515.3789L 1326.0215,1511.918L 1326.1094,1508.2188L 1326.3438,1504.6875L 1326.7539,1501.5078L 1327,1500L 1327,1441L 1326.7539,1439.4922L 1326.3438,1436.3125L 1326.1094,1432.7813L 1326.0215,1429.082L 1326.002,1425.6211L 1326,1424L 1325.752,1422.4961L 1325.3223,1419.3555L 1325,1416L 1324.7344,1414.7656L 1324.2344,1412.2656L 1324,1411L 1323.7344,1409.7656L 1323.2344,1407.2656L 1323,1406L 1322,1403L 1321,1400L 1320,1398L 1319,1396L 1318,1394L 1316.666,1392L 1316,1391L 1315,1390L 1314,1389L 1313,1388L 1312,1387L 1311,1386L 1310,1385L 1309,1384L 1308,1383L 1307,1382.4297L 1305,1381.248L 1303,1380L 1301,1379L 1299.7344,1378.5L 1297.2344,1377.5L 1296,1377L 1293,1376L 1290.332,1375.334L 1289,1375L 1286.332,1374.334L 1285,1374L 1283.7344,1373.7656L 1281.2344,1373.2656L 1280,1373L 1278.4688,1372.7656L 1275.4688,1372.2656L 1274,1372L 1272.1758,1371.9121L 1268.6836,1371.6582L 1265.5078,1371.2461L 1264,1371L 1262.0391,1370.9805L 1258.2188,1370.8906L 1254.6875,1370.6563L 1251.5078,1370.2461L 1250,1370L 1143,1370L 1141.4922,1370.2461L 1138.3125,1370.6563L 1134.8438,1370.8906L 1131.332,1370.9785L 1128,1371L 1126.5547,1371.2461L 1123.6055,1371.6582L 1120.5508,1371.9121L 1119,1372L 1117.5313,1372.2656L 1114.5313,1372.7656L 1113,1373L 1111.7656,1373.2656L 1109.2656,1373.7656L 1108,1374L 1106.668,1374.334L 1104,1375L 1102.668,1375.334L 1100,1376L 1097,1377L 1094.5313,1378L 1092,1379L 1090,1380L 1089,1380.624L 1087,1381.8389L 1085,1383L 1084,1384L 1083,1385L 1082,1386L 1081,1387L 1080,1388L 1079,1389L 1078,1390L 1077.334,1391L 1076,1393L 1075,1395L 1074,1397L 1073,1399L 1072,1401L 1071,1404L 1070.334,1406.668L 1070,1408L 1069.334,1410.668L 1069,1412L 1068.6777,1414.8594L 1068.248,1417.6367L 1068,1419L 1067.9121,1420.8242L 1067.6582,1424.3164L 1067.2461,1427.4922L 1067,1429L 1067,1512L 1067.2461,1513.4922L 1067.6563,1516.5625L 1067.8926,1519.7617L 1068,1523L 1068.2656,1524.4688L 1068.7656,1527.4688L 1069,1529L 1069.2656,1530.2344L 1069.7656,1532.7344L 1070,1534L 1071,1537L 1072,1540L 1073,1543L 1074,1545L 1075,1547L 1076,1549L 1076.7656,1550L 1078.2656,1552L 1079,1553L 1080,1554L 1081,1555L 1082,1556L 1083,1557ZM 1129.2363,1444.4727L 1129.4985,1442.9971L 1130.084,1440.1641L 1130.446,1438.8706L 1131.2551,1436.4048L 1132.2424,1434.1685L 1132.8276,1433.1582L 1133.4585,1432.2036L 1134.8204,1430.405L 1135.617,1429.6119L 1137.3585,1428.1211L 1139.4119,1426.8174L 1140.5877,1426.2614L 1143.0475,1425.2479L 1145.6902,1424.4226L 1148.4941,1423.7639L 1151.4697,1423.2366L 1153,1423L 1154.5078,1422.7539L 1157.6875,1422.3438L 1161.2188,1422.1094L 1165.0391,1422.0195L 1167,1422L 1168.5078,1421.7539L 1171.6875,1421.3438L 1175.2188,1421.1094L 1179.043,1421.0215L 1183.0039,1421.002L 1187,1421L 1207,1421L 1210.9961,1421.002L 1214.957,1421.0215L 1218.7813,1421.1094L 1222.3125,1421.3438L 1225.4922,1421.7539L 1227,1422L 1228.9609,1422.0195L 1232.7813,1422.1094L 1236.3125,1422.3438L 1239.4922,1422.7539L 1241,1423L 1242.5273,1423.2363L 1244.0029,1423.4985L 1246.8359,1424.082L 1248.1294,1424.4363L 1249.3633,1424.8247L 1250.5442,1425.2506L 1252.8142,1426.1876L 1253.8676,1426.753L 1255.8983,1428.0008L 1257.7543,1429.4908L 1258.5691,1430.3615L 1260.0708,1432.2316L 1261.3261,1434.3526L 1262.3516,1436.6852L 1263.1499,1439.1592L 1263.4478,1440.4351L 1263.7286,1441.7586L 1264.2509,1444.5488L 1264.6563,1447.6875L 1264.8906,1451.2188L 1264.9785,1454.918L 1264.998,1458.3789L 1265,1460L 1265.2461,1461.5078L 1265.4512,1463.0977L 1265.7715,1466.4492L 1265.9131,1470.0879L 1265.8789,1473.8047L 1265.6553,1477.3145L 1265.2461,1480.4922L 1265,1482L 1264.998,1483.6211L 1264.9785,1487.082L 1264.8906,1490.7813L 1264.6563,1494.3125L 1264.4512,1495.9023L 1264.2305,1497.3984L 1263.749,1500.2363L 1263.1367,1502.8418L 1262.3008,1505.3203L 1261.2158,1507.6621L 1259.917,1509.7871L 1258.3965,1511.6445L 1257.4829,1512.4453L 1255.4653,1513.9404L 1253.0933,1515.2324L 1251.7827,1515.7793L 1249.1128,1516.7749L 1246.3914,1517.5845L 1243.655,1518.2188L 1240.863,1518.6758L 1238,1519L 1236.4922,1519.2461L 1233.3125,1519.6563L 1229.7813,1519.8906L 1225.957,1519.9785L 1221.9961,1519.998L 1218,1520L 1175,1520L 1171.0039,1519.998L 1167.043,1519.9785L 1163.2188,1519.8906L 1159.6875,1519.6563L 1156.5078,1519.2461L 1155,1519L 1153.5684,1518.8379L 1150.7412,1518.4478L 1149.3638,1518.1775L 1148.0044,1517.8682L 1146.6672,1517.5223L 1145.3584,1517.1405L 1144.0836,1516.7203L 1142.8463,1516.257L 1140.451,1515.2325L 1139.3363,1514.6123L 1137.2024,1513.2512L 1136.2433,1512.4548L 1134.4577,1510.762L 1132.9534,1508.8795L 1132.3484,1507.839L 1131.2702,1505.6393L 1130.4261,1503.191L 1129.7642,1500.4782L 1129.2366,1497.5273L 1129,1496L 1128.7539,1494.4922L 1128.3438,1491.3125L 1128.1094,1487.7813L 1128.0215,1483.957L 1128.002,1479.9961L 1128,1476L 1128,1466L 1128.002,1462.0039L 1128.0215,1458.043L 1128.1094,1454.2188L 1128.3438,1450.6875L 1128.7539,1447.5078L 1129,1446Z" style="fill:rgb(0,0,0);"/>
<path d="M 1377,1372L 1377,1569L 1438,1569L 1438,1443L 1438.001,1441.002L 1438.0269,1437.0459L 1438.2185,1433.3667L 1438.6559,1431.9485L 1439.5475,1430.9564L 1441.4957,1430.093L 1442.3859,1430.6019L 1443.2073,1431.3287L 1443.9936,1432.1782L 1445.5169,1434.0139L 1446.9551,1436L 1447.6416,1437L 1448.998,1439L 1450.334,1441L 1451,1442L 1452.5098,1444L 1453.9551,1446L 1455.3281,1448L 1456,1449L 1457.5098,1451L 1458.9551,1453L 1460.3281,1455L 1461,1456L 1462.5098,1458L 1463.9551,1460L 1465.3281,1462L 1466,1463L 1467.5098,1465L 1468.9551,1467L 1470.3281,1469L 1471,1470L 1472.5098,1472L 1473.9551,1474L 1475.3281,1476L 1476,1477L 1477.5098,1479L 1478.9551,1481L 1480.3281,1483L 1481,1484L 1482.5098,1486L 1483.9551,1488L 1485.3281,1490L 1486,1491L 1487.5098,1493L 1488.9551,1495L 1490.3281,1497L 1491,1498L 1492.5098,1500L 1493.9551,1502L 1495.3281,1504L 1496,1505L 1497.5098,1507L 1498.9551,1509L 1500.3281,1511L 1501,1512L 1502.5098,1514L 1503.9551,1516L 1505.3281,1518L 1506,1519L 1507.5098,1521L 1508.9551,1523L 1509.6416,1524L 1510.998,1526L 1512.334,1528L 1513,1529L 1514.5098,1531L 1515.9551,1533L 1517.3281,1535L 1518,1536L 1519.5098,1538L 1520.9551,1540L 1522.3281,1542L 1523,1543L 1524.5098,1545L 1525.9551,1547L 1527.3281,1549L 1528,1550L 1529.5098,1552L 1530.9551,1554L 1532.3281,1556L 1533,1557L 1534.5098,1559L 1535.9551,1561L 1537.3281,1563L 1538,1564L 1538.7656,1565L 1540.2656,1567L 1541,1568L 1542,1569L 1642,1569L 1642,1372L 1581,1372L 1581,1499L 1580.999,1500.998L 1580.9902,1502.9844L 1580.9075,1506.8599L 1580.6782,1508.5869L 1579.7656,1511.373L 1578.0792,1512.4309L 1576.2175,1511.6812L 1574.6794,1509.9663L 1574,1509L 1572.4902,1507L 1571.0449,1505L 1569.6719,1503L 1569,1502L 1567.4902,1500L 1566.0449,1498L 1565.3584,1497L 1564.002,1495L 1562.666,1493L 1562,1492L 1560.4902,1490L 1559.0449,1488L 1557.6719,1486L 1557,1485L 1555.4902,1483L 1554.0449,1481L 1552.6719,1479L 1552,1478L 1550.4902,1476L 1549.0449,1474L 1547.6719,1472L 1547,1471L 1545.4902,1469L 1544.0449,1467L 1542.6719,1465L 1542,1464L 1540.4902,1462L 1539.0449,1460L 1538.3584,1459L 1537.002,1457L 1535.666,1455L 1535,1454L 1533.4902,1452L 1532.0449,1450L 1530.6719,1448L 1530,1447L 1528.4902,1445L 1527.0449,1443L 1525.6719,1441L 1525,1440L 1523.4902,1438L 1522.0449,1436L 1520.6719,1434L 1520,1433L 1518.4902,1431L 1517.0449,1429L 1515.6719,1427L 1515,1426L 1513.4902,1424L 1512.0449,1422L 1511.3584,1421L 1510.002,1419L 1508.666,1417L 1508,1416L 1506.4902,1414L 1505.0449,1412L 1503.6719,1410L 1503,1409L 1501.4902,1407L 1500.0449,1405L 1498.6719,1403L 1498,1402L 1496.4902,1400L 1495.0449,1398L 1493.6719,1396L 1493,1395L 1491.4902,1393L 1490.0449,1391L 1488.6719,1389L 1488,1388L 1486.4902,1386L 1485.0449,1384L 1483.6719,1382L 1483,1381L 1481.4902,1379L 1480.0449,1377L 1478.6719,1375L 1478,1374L 1477,1373L 1476,1372Z" style="fill:rgb(0,0,0);"/>
<path d="M 0,0L 0,2000L 2000,2000L 2000,0ZM 350.0067,1392L 350.0089,1388.0039L 350.0503,1384.0469L 350.2677,1380.2656L 350.9541,1376.9531L 352.4613,1374.4609L 354.9532,1372.9531L 358.2656,1372.2656L 362.0469,1372.0469L 366.0039,1372.0039L 370,1372L 391,1372L 394.9961,1372.0039L 398.9531,1372.0469L 402.7344,1372.2656L 406.0469,1372.9531L 408.5391,1374.4609L 410.0469,1376.9531L 410.7344,1380.2656L 410.9531,1384.0469L 410.9961,1388.0039L 411,1392L 411,1502L 411.334,1503.332L 412,1506L 413,1508L 414.334,1510L 415,1511L 416,1512L 417,1512.666L 419,1514L 421,1515L 423,1516L 426,1517L 428.668,1517.666L 430,1518L 431.2656,1518.2344L 433.7656,1518.7344L 435,1519L 436.5508,1519.0879L 439.6055,1519.3418L 442.5547,1519.7539L 444,1520L 505,1520L 506.4453,1519.7539L 509.3945,1519.3418L 512.4492,1519.0879L 514,1519L 515.2344,1518.7344L 517.7344,1518.2344L 519,1518L 520.332,1517.666L 523,1517L 526,1516L 528,1515L 530,1514L 532,1513L 533,1512L 534,1511L 535,1510L 535.666,1509L 537,1507L 538,1504L 538.3223,1501.1406L 538.752,1498.3633L 539,1497L 539,1392L 539.0039,1388.0039L 539.0469,1384.0469L 539.2656,1380.2656L 539.9531,1376.9531L 541.4609,1374.4609L 543.9531,1372.9531L 547.2656,1372.2656L 551.0469,1372.0469L 555.0039,1372.0039L 559,1372L 580,1372L 583.9961,1372.0039L 587.9531,1372.0469L 591.7344,1372.2656L 595.0469,1372.9531L 597.5391,1374.4609L 599.0469,1376.9531L 599.7344,1380.2656L 599.9531,1384.0469L 599.9961,1388.0039L 600,1392L 600,1487L 599.998,1490.9961L 599.9785,1494.957L 599.8906,1498.7813L 599.6563,1502.3125L 599.2461,1505.4922L 599,1507L 598.8926,1510.7852L 598.6563,1514.3125L 598.2461,1517.4922L 598,1519L 597.7656,1520.5313L 597.5156,1522.0313L 597.0098,1524.9082L 596.4648,1527.5898L 595.7988,1530.252L 595.3994,1531.626L 595.0112,1532.936L 594.6184,1534.1936L 593.8062,1536.6123L 593.3666,1537.7332L 592.4519,1539.9077L 591.4692,1541.9775L 590.9388,1542.9871L 590.3808,1543.9926L 589.7912,1544.9958L 589.1665,1545.9977L 588.5033,1546.9987L 587.0956,1548.9979L 585.5211,1550.9785L 584.6536,1551.9346L 583.7541,1552.854L 581.9028,1554.6079L 580.9361,1555.3955L 578.981,1556.8818L 577.9884,1557.542L 575.9976,1558.7933L 573.9958,1559.9259L 572.9783,1560.4533L 570.8887,1561.4888L 568.6387,1562.4963L 566.166,1563.4803L 563.5059,1564.4102L 562.1328,1564.8281L 560.7627,1565.2222L 558.0347,1565.9707L 555.3091,1566.6479L 552.5,1567.25L 549.5293,1567.7646L 548,1568L 546.6367,1568.248L 543.8594,1568.6777L 541,1569L 539.4922,1569.2461L 536.3164,1569.6582L 532.8242,1569.9121L 531,1570L 529.4922,1570.2461L 526.3125,1570.6563L 522.7813,1570.8906L 519.082,1570.9785L 515.6211,1570.998L 514,1571L 512.4922,1571.2461L 509.3125,1571.6563L 505.7813,1571.8906L 501.957,1571.9785L 497.9961,1571.998L 494,1572L 455,1572L 451.0039,1571.998L 447.043,1571.9785L 443.2188,1571.8906L 439.6875,1571.6563L 436.5078,1571.2461L 435,1571L 433.3789,1570.998L 429.918,1570.9785L 426.2188,1570.8906L 422.6875,1570.6563L 419.5078,1570.2461L 418,1570L 416.1758,1569.9121L 412.6836,1569.6582L 409.5078,1569.2461L 408,1569L 405.1406,1568.6777L 402.3633,1568.248L 399.7344,1567.7656L 397.2344,1567.2656L 396,1567L 393.4102,1566.4648L 390.748,1565.7988L 389.374,1565.3994L 386.752,1564.624L 385.5371,1564.2314L 384.3325,1563.8167L 383.1284,1563.3794L 380.7283,1562.4647L 378.3794,1561.4761L 377.2627,1560.9431L 375.0923,1559.8281L 374.0574,1559.2222L 373.0352,1558.5952L 372.0213,1557.9476L 370.0061,1556.6064L 368.022,1555.1571L 367.0657,1554.3618L 365.2266,1552.6934L 363.5557,1550.882L 362.8062,1549.924L 362.0859,1548.9519L 360.6929,1546.9842L 359.3875,1544.959L 358.1724,1542.8202L 357.613,1541.6562L 356.5449,1539.2871L 355.5884,1536.9004L 355.1702,1535.6982L 354.3828,1533.2344L 354.0278,1531.9443L 353.3491,1529.3564L 352.7471,1526.7949L 352.2344,1524.2656L 351.752,1521.4961L 351.3223,1518.3555L 351,1515L 350.7653,1513.4922L 350.375,1510.3127L 350.1539,1506.7815L 350.072,1502.9573L 350.0536,1498.9964L 350.0506,1495.0003ZM 603.3672,1034.9805L 602.7607,1033.9727L 601.5996,1031.9727L 601.0632,1030.9805L 600.0159,1028.9932L 599.0027,1026.999L 598,1025L 597.3872,1024L 596.1938,1022L 595.6334,1021L 595.0898,1020L 594.0287,1017.9961L 593.0065,1015.9609L 592.0009,1013.8203L 591.0001,1011.4922L 590,1009L 589,1007L 588,1004.9961L 587,1002.9609L 586,1000.8203L 585,998.4922L 584,996L 583,993.8242L 582,991.4922L 581,989L 580,986.5313L 579,984L 578.5,982.7461L 577.5,980.1582L 576.5,977.4121L 576,976L 575,973.4512L 574.5,972.1123L 573.5,969.354L 573,967.9077L 572.5,966.4426L 571.502,963.491L 570.5195,960.5294L 569.5898,957.6171L 568.7539,954.7813L 568,952L 567.5176,950.5273L 566.5898,947.6172L 566.1719,946.1992L 565.3838,943.4043L 564.6729,940.6816L 564.3364,939.3408L 563.666,936.668L 563,934L 562.666,932.668L 562,930L 561.3457,927.3633L 560.7471,924.7949L 560.2344,922.2656L 560,921L 559.3486,918.3027L 558.75,915.5L 558.2354,912.5293L 558,911L 557.7344,909.7656L 557.2344,907.2656L 556.7344,904.5313L 556.2344,901.5313L 556,900L 555.752,898.6367L 555.3223,895.8594L 555,893L 554.752,891.6367L 554.3223,888.8594L 554,886L 553.7539,884.5547L 553.3418,881.6055L 553.0879,878.5508L 553,877L 552.7539,875.4922L 552.3438,872.3125L 552.1074,868.7852L 552,865L 551.7539,863.4922L 551.3438,860.3125L 551.1094,856.7813L 551.0215,852.957L 551.002,848.9961L 551,845L 551,843L 550.7559,841.5508L 550.3652,838.582L 550.2188,835.5L 550.3652,832.418L 550.7559,829.4492L 551,828L 551,826L 551.002,822.0039L 551.0215,818.043L 551.1094,814.2188L 551.3438,810.6875L 551.7539,807.5078L 552,806L 552.1074,802.2148L 552.3438,798.6875L 552.7539,795.5078L 553,794L 553.0879,792.4492L 553.3418,789.3945L 553.7539,786.4453L 554,785L 554.3223,781.6445L 554.752,778.5039L 555,777L 555.2344,775.4688L 555.7344,772.4688L 556,771L 556.2344,769.4688L 556.7344,766.4688L 557,765L 557.2344,763.4688L 557.7344,760.4688L 557.9844,759.1016L 558.4902,756.4688L 559.0449,753.918L 559.6719,751.3164L 560,750L 560.4902,747.4688L 561.0449,744.918L 561.6719,742.3164L 562,741L 562.666,738.332L 563,737L 563.666,734.332L 564,733L 564.3364,731.6592L 565.0283,728.957L 565.7778,726.1982L 566.6128,723.3643L 567.5269,720.4639L 568,719L 568.3872,717.6025L 569.1938,714.7842L 569.6334,713.3464L 570.5461,710.4404L 571.5112,707.4854L 572.5017,704.5186L 573.5001,701.6091L 574.5,698.8438L 575.5,696.2539L 576,695L 576.5,693.7344L 577.5,691.2344L 578,690L 579,687.2266L 580,684.6133L 581,682.2266L 582,680L 583,677.5479L 584,675.2148L 585,673L 585.5,671.7744L 586,670.5811L 587,668.2668L 587.5,667.1796L 588.5,665.0574L 589,664.0352L 590,662.0074L 590.5,661.0042L 591.5,659.0005L 592,658.0003L 593,656L 593.5,655L 594.5,653L 595,652L 596,650L 597,648L 597.5,647L 598.502,645L 599.5195,643L 600.5898,641L 601.7539,639L 603,637L 603.5176,636L 604.5898,634L 605.7539,632L 607,630L 607.5703,629L 608.1611,628L 609.3828,626L 610.6729,624L 612,622L 612.5703,621L 613.1611,620L 614.3828,618L 615.6729,616L 616.3364,615L 617.666,613L 619,611L 619.666,610L 620.333,609L 621.6743,607L 623.0493,605L 624.4927,603L 626,601L 626.6743,600L 628.0493,598L 629.4927,596L 631,594L 632.4844,592L 633.2422,591L 634.7686,589L 636.3491,587L 638,585L 638.7686,584L 640.3491,582L 642,580L 643.5776,578L 645.2444,576L 647,574L 648.6072,572L 650.3008,570L 652.1111,568L 654,566L 654.8145,565L 655.6476,564L 656.5034,563L 657.3833,562L 658.2863,561L 659.21,560L 660.1516,559L 661.1078,558L 662.0755,557L 663.0522,556L 664.0357,555L 665.0241,554L 666.0161,553L 667.0107,552L 668.007,551L 669.0046,550L 670.0029,549L 671.0019,548L 672.0012,547L 673.0008,546L 674.0005,545L 675.0003,544L 676.0002,543L 678,541.002L 680,539.0215L 682,537.1094L 684,535.3438L 686,533.7539L 687,533L 688,532.0195L 690,530.1094L 692,528.3438L 694,526.7539L 695,526L 696,525.0879L 698,523.3418L 700,521.7539L 701,521L 703,519.3223L 705,517.752L 706,517L 707,516.2344L 709,514.7344L 710,514L 711,513.1611L 713,511.5439L 715,510.0557L 717,508.6729L 718,508L 720,506.4902L 722,505.0449L 724,503.6719L 725,503L 727,501.4902L 729,500.0449L 730,499.3584L 731,498.6802L 732,498.0076L 734,496.6758L 736,495.3848L 738,494.1616L 740,493L 742,491.6753L 744,490.3848L 746,489.1616L 748,488L 749,487.376L 751,486.1611L 753,485L 755,483.7744L 757,482.6128L 759,481.5269L 760,481L 761,480.3872L 763,479.1938L 764,478.6334L 766,477.5461L 767,477.0287L 769,476.0065L 770,475.5037L 772,474.5005L 773,474.0003L 775,473L 776,472.5L 778,471.5L 779,471L 781,470L 783.0039,469L 785.0391,468L 787.1797,467L 789.5078,466L 792,465L 794.1758,464L 796.5078,463L 799,462L 801.1758,461L 803.5078,460L 804.7539,459.5L 807.2539,458.5L 809.8418,457.5L 812.5879,456.5L 814,456L 816.5488,455L 817.8877,454.5L 820.646,453.5L 822.0923,453L 825.0225,452L 826.5129,451.5L 829.5018,450.5L 832.4962,449.502L 835.4688,448.5195L 838.3828,447.5898L 841.2188,446.7539L 844,446L 845.4141,445.5703L 848.2227,444.752L 851,444L 852.4141,443.5703L 853.8184,443.1611L 856.5977,442.3828L 857.958,442.0278L 860.6299,441.3491L 863.2051,440.7471L 865.7344,440.2344L 867,440L 869.6367,439.3457L 872.2051,438.7471L 874.7344,438.2344L 876,438L 877.2344,437.7344L 879.7344,437.2344L 882.4688,436.7344L 885.4688,436.2344L 887,436L 888.4688,435.7344L 891.4688,435.2344L 893,435L 894.3633,434.752L 897.1406,434.3223L 900,434L 901.3633,433.752L 904.1406,433.3223L 907,433L 908.4453,432.7539L 911.3945,432.3418L 914.4492,432.0879L 916,432L 917.5078,431.7539L 920.6563,431.3438L 924,431.1094L 927.3516,431.0195L 929,431L 930.5078,430.7539L 933.6875,430.3438L 937.2188,430.1094L 941.043,430.0215L 945.0039,430.002L 949,430L 964,430L 967.9961,430.002L 971.957,430.0215L 975.7813,430.1094L 979.3125,430.3438L 982.4922,430.7539L 984,431L 987.7852,431.1074L 991.3125,431.3438L 994.4922,431.7539L 996,432L 997.8242,432.0879L 1001.3164,432.3418L 1004.4922,432.7539L 1006,433L 1008.8594,433.3223L 1011.6367,433.752L 1013,434L 1015.8594,434.3223L 1018.6367,434.752L 1020,435L 1021.5313,435.2344L 1024.5313,435.7344L 1026,436L 1027.5313,436.2344L 1030.5313,436.7344L 1033.2656,437.2344L 1035.7656,437.7344L 1037,438L 1039.5313,438.4902L 1042.082,439.0449L 1044.6836,439.6719L 1046,440L 1048.5313,440.4902L 1051.082,441.0449L 1053.6973,441.6787L 1056.4023,442.3828L 1059.1816,443.1611L 1062,444L 1063.3408,444.3364L 1066.043,445.0283L 1067.4224,445.4031L 1070.2192,446.1956L 1073.0913,447.073L 1076.0273,448.019L 1079,449L 1081.6875,449.7744L 1084.292,450.6128L 1086.7822,451.5269L 1088,452L 1089.498,452.5L 1092.4785,453.5L 1095.3906,454.5L 1098.1563,455.5L 1100.7461,456.5L 1102,457L 1103.2656,457.5L 1105.7656,458.5L 1107,459L 1108.2656,459.5L 1110.7656,460.5L 1113.2256,461.5L 1115.6123,462.5L 1117.8545,463.5L 1119.9678,464.5L 1121,465L 1122.2256,465.5L 1123.4189,466L 1125.7332,467L 1126.8204,467.5L 1128.9426,468.5L 1129.9648,469L 1131.9926,470L 1132.9958,470.5L 1134.9995,471.5L 1135.9997,472L 1138,473L 1139,473.5L 1141,474.5L 1142,475L 1143,475.5L 1145,476.502L 1147,477.5195L 1149,478.5898L 1151,479.7539L 1153,481L 1154,481.502L 1156,482.5195L 1158,483.5898L 1160,484.7539L 1162,486L 1163,486.5703L 1164,487.1611L 1166,488.3828L 1168,489.6729L 1170,491L 1171,491.5703L 1172,492.1611L 1174,493.3828L 1176,494.6729L 1177,495.3364L 1179,496.666L 1181,498L 1182,498.666L 1184,500L 1185,500.666L 1186,501.333L 1188,502.6743L 1190,504.0493L 1192,505.4927L 1194,507L 1196,508.4844L 1198,510L 1200,511.4844L 1202,513L 1204,514.4844L 1205,515.2422L 1207,516.7686L 1209,518.3491L 1211,520L 1213,521.5776L 1215,523.2444L 1217,525L 1218,525.666L 1220,527L 1222,528L 1225,529L 1230,529L 1233,528L 1235,527L 1237,525.666L 1238,525L 1239,524L 1240,523L 1241,522L 1242,521L 1243,520L 1244,519L 1245,518L 1246,517L 1247,516L 1248,515L 1249,514L 1250,513L 1251,512L 1252,511L 1253,510L 1254,509L 1255,508L 1256,507L 1257,506L 1258,505L 1259,504L 1260,503L 1261,502L 1262,501L 1263,500L 1264,499L 1265,498L 1266,497L 1267,496L 1268,495L 1269,494L 1270,493L 1271,492L 1272,491L 1273,490L 1275,488.002L 1277,486.0215L 1279,484.1094L 1281,482.3438L 1283,480.7539L 1284,480L 1285,479L 1286,478L 1287,477L 1288,476L 1289,475L 1290,474L 1291,473L 1292,472L 1293,471L 1294,470L 1295,469L 1296,468L 1297,467L 1298,466L 1299,465L 1300,464L 1301,463L 1302,462L 1304,460.002L 1305,459.0117L 1307,457.0664L 1309.0039,455.2383L 1310.0215,454.4268L 1312.1074,452.9287L 1314.3379,451.6738L 1316.7871,450.6523L 1318.1445,450.2727L 1320.9805,449.6851L 1322.4766,449.5809L 1325.436,449.5792L 1326.8296,449.7735L 1328.1476,450.0487L 1329.394,450.3967L 1330.5785,450.8129L 1331.7124,451.2954L 1332.8071,451.8435L 1333.8727,452.4563L 1335.9596,453.8062L 1337.9697,455.3883L 1339.8892,457.1572L 1341.6561,459.0512L 1343.2461,461.0106L 1344,462L 1344.9121,463L 1346.6582,465L 1348.2461,467L 1349,468L 1350.6777,470L 1352.248,472L 1353,473L 1354.6777,475L 1356.248,477L 1357,478L 1357.7656,479L 1359.2656,481L 1360,482L 1360.7656,483L 1362.2656,485L 1363,486L 1364.5098,488L 1365.9551,490L 1366.6416,491L 1367.998,493L 1369.334,495L 1370,496L 1370.7637,497L 1372.2393,499L 1373.5977,501L 1374.8369,503L 1376,505L 1377.334,507L 1378,508L 1379.3247,510L 1380.6152,512L 1381.8384,514L 1383,516L 1384.2256,518L 1385.3872,520L 1386.4731,522L 1387,523L 1388.2256,525L 1389.3872,527L 1390.4731,529L 1391,530L 1391.6128,531L 1392.8062,533L 1393.3666,534L 1394.4539,536L 1394.9713,537L 1395.9935,539L 1396.4963,540L 1397.4995,542L 1397.9997,543L 1399,545L 1399.5,546L 1400,547L 1401,549.0039L 1402,551.0391L 1403,553.1797L 1404,555.5078L 1405,558L 1406,560.0391L 1407,562.1797L 1408,564.5078L 1409,567L 1410,569.4688L 1411,572L 1412,574.4688L 1413,577L 1414,579.4688L 1415,582L 1416,584.5488L 1416.5,585.8877L 1417.5,588.646L 1418,590.0923L 1419,593.0225L 1419.5,594.5129L 1420.5,597.5018L 1421.498,600.4962L 1422.4805,603.4688L 1423.4102,606.3828L 1424.2461,609.2188L 1425,612L 1425.4297,613.4141L 1425.8389,614.8184L 1426.6172,617.5977L 1427.3271,620.3184L 1427.6636,621.6592L 1428.334,624.332L 1429,627L 1429.334,628.332L 1430,631L 1430.6543,633.6367L 1431.2529,636.2051L 1431.7656,638.7344L 1432,640L 1432.2656,641.2344L 1432.7656,643.7344L 1433,645L 1433.2656,646.2344L 1433.7656,648.7344L 1434,650L 1434.2656,651.2344L 1434.7656,653.7344L 1435.248,656.3633L 1435.6777,659.1406L 1436,662L 1436.2656,663.4688L 1436.7656,666.4688L 1437,668L 1437.248,669.5039L 1437.6777,672.6445L 1438,676L 1438.2461,677.5078L 1438.6582,680.6836L 1438.9121,684.1758L 1439,686L 1439.2461,687.5078L 1439.6563,690.6875L 1439.8926,694.2148L 1440,698L 1440.2461,699.5078L 1440.6563,702.6875L 1440.8906,706.2188L 1440.9785,710.043L 1440.998,714.0039L 1441,718L 1441,731L 1440.998,734.9961L 1440.9785,738.957L 1440.8906,742.7813L 1440.6563,746.3125L 1440.2461,749.4922L 1440,751L 1439.9805,752.6484L 1439.8906,756L 1439.6563,759.3438L 1439.2461,762.4922L 1439,764L 1438.9121,765.5508L 1438.6582,768.6055L 1438.2461,771.5547L 1438,773L 1437.6777,776.3555L 1437.248,779.4961L 1437,781L 1436.6777,783.8594L 1436.248,786.6367L 1436,788L 1435.7656,789.5313L 1435.2656,792.5313L 1434.7656,795.2656L 1434.2656,797.7656L 1434,799L 1433.5098,802.0195L 1432.9551,804.9102L 1432.3281,807.6563L 1432,809L 1431.5098,811.5313L 1430.9551,814.082L 1430.3281,816.6836L 1430,818L 1429.334,820.668L 1429,822L 1428.334,824.668L 1428,826L 1427.3271,828.6816L 1426.6172,831.4023L 1425.8389,834.1816L 1425,837L 1424.6128,838.3975L 1423.8062,841.2158L 1423.3666,842.6536L 1422.4539,845.5596L 1421.9713,847.0381L 1420.9935,850.0098L 1420.4963,851.5057L 1419.4995,854.4989L 1418.5,857.4786L 1417.5,860.3906L 1416.5,863.1563L 1415.5,865.7461L 1415,867L 1414.5,868.2656L 1413.5,870.7656L 1413,872L 1412.5,873.2656L 1411.5,875.7656L 1411,877L 1410.5,878.2656L 1409.5,880.7656L 1408.5,883.2256L 1407.5,885.6123L 1406.5,887.8545L 1405.5,889.9678L 1405,891L 1404.5,892.2256L 1404,893.4189L 1403,895.7332L 1402.5,896.8204L 1401.5,898.9426L 1401,899.9648L 1400,901.9926L 1399.5,902.9958L 1398.5,904.9995L 1398,905.9997L 1397.5,906.9999L 1396.498,909L 1395.4805,911L 1394.4102,913L 1393.2461,915L 1392,917L 1391.498,918L 1390.4805,920L 1389.4102,922L 1388.2461,924L 1387,926L 1386.4824,927L 1385.4102,929L 1384.8281,930L 1383.6162,932L 1382.3271,934L 1381,936L 1380.4297,937L 1379.8389,938L 1378.6172,940L 1377.3271,942L 1376.6636,943L 1375.334,945L 1374,947L 1373.334,948L 1372,950L 1371.334,951L 1370,953L 1369.334,954L 1368.667,955L 1367.3257,957L 1365.9507,959L 1364.5073,961L 1363,963L 1361.5156,965L 1360,967L 1358.5156,969L 1357.7578,970L 1356.2314,972L 1354.6509,974L 1353,976L 1352.2314,977L 1350.6509,979L 1349,981L 1347.4224,983L 1345.7556,985L 1344,987L 1343.1964,988L 1341.5455,990L 1339.7904,992L 1337.9274,994L 1336,996L 1335.1855,997L 1334.3524,998L 1333.4966,999L 1332.6167,1000L 1331.7137,1001L 1330.79,1002L 1329.8484,1003L 1328.8922,1004L 1327.9245,1005L 1326.9478,1006L 1325.9643,1007L 1324.9759,1008L 1323.9839,1009L 1322.9893,1010L 1321.993,1011L 1320.9954,1012L 1319.9971,1013L 1318.9981,1014L 1317.9988,1015L 1315.9997,1016.998L 1313.9999,1018.9785L 1312,1020.8906L 1310,1022.6563L 1308,1024.2461L 1307,1025L 1305,1026.9785L 1303,1028.8906L 1301,1030.6563L 1299,1032.2461L 1298,1033L 1297,1033.9121L 1295,1035.6582L 1293,1037.2461L 1292,1038L 1290,1039.6777L 1288,1041.248L 1287,1042L 1285,1043.6777L 1283,1045.248L 1282,1046L 1281,1046.7656L 1279,1048.2656L 1278,1049L 1277,1049.7656L 1275,1051.2656L 1274,1052L 1272,1053.5098L 1270,1054.9551L 1269,1055.6416L 1267,1056.998L 1265,1058.334L 1264,1059L 1262,1060.334L 1261,1061L 1259,1062.334L 1258,1063L 1256,1064.334L 1255,1065L 1253,1066.3247L 1251,1067.6152L 1249,1068.8384L 1247,1070L 1246,1070.6624L 1244,1071.9695L 1242,1073.2209L 1240,1074.387L 1238,1075.4731L 1237,1076L 1236,1076.6128L 1234,1077.8062L 1232,1078.927L 1230,1079.981L 1228,1081L 1227,1081.6128L 1225,1082.8062L 1224,1083.3666L 1222,1084.4539L 1221,1084.9713L 1219,1085.9935L 1218,1086.4963L 1216,1087.4995L 1215,1087.9997L 1213,1089L 1210.9961,1090L 1208.9609,1091L 1206.8203,1092L 1204.4922,1093L 1202,1094L 1199.9609,1095L 1197.8203,1096L 1195.4922,1097L 1193,1098L 1190.5313,1099L 1188,1100L 1185.5313,1101L 1183,1102L 1180.5313,1103L 1178,1104L 1175.4512,1105L 1174.1123,1105.5L 1171.354,1106.5L 1169.9077,1107L 1166.9775,1108L 1165.4871,1108.5L 1162.4982,1109.5L 1159.5038,1110.498L 1156.5313,1111.4805L 1153.6172,1112.4102L 1150.7813,1113.2461L 1148,1114L 1146.5859,1114.4297L 1145.1816,1114.8389L 1142.4023,1115.6172L 1139.6816,1116.3271L 1138.3408,1116.6636L 1135.668,1117.334L 1133,1118L 1131.668,1118.334L 1129,1119L 1127.668,1119.334L 1125,1120L 1122.3633,1120.6543L 1119.7949,1121.2529L 1117.2656,1121.7656L 1116,1122L 1114.7656,1122.2656L 1112.2656,1122.7656L 1109.5313,1123.2656L 1106.5313,1123.7656L 1105,1124L 1103.5313,1124.2656L 1100.5313,1124.7656L 1099,1125L 1097.6367,1125.248L 1094.8594,1125.6777L 1092,1126L 1090.6367,1126.248L 1087.8594,1126.6777L 1085,1127L 1083.5547,1127.2461L 1080.6055,1127.6582L 1077.5508,1127.9121L 1076,1128L 1074.4922,1128.2461L 1071.3125,1128.6563L 1067.7852,1128.8926L 1064,1129L 1062.4922,1129.2461L 1059.3125,1129.6563L 1055.7813,1129.8906L 1051.957,1129.9785L 1047.9961,1129.998L 1044,1130L 1027,1130L 1023.0039,1129.998L 1019.043,1129.9785L 1015.2188,1129.8906L 1011.6875,1129.6563L 1008.5078,1129.2461L 1007,1129L 1003.2148,1128.8926L 999.6875,1128.6563L 996.5078,1128.2461L 995,1128L 993.4492,1127.9121L 990.3945,1127.6582L 987.4453,1127.2461L 986,1127L 982.6445,1126.6777L 979.5039,1126.248L 978,1126L 975.1406,1125.6777L 972.3633,1125.248L 971,1125L 969.4688,1124.7656L 966.4688,1124.2656L 963.7344,1123.7656L 961.2344,1123.2656L 960,1123L 958.7344,1122.7656L 956.2344,1122.2656L 955,1122L 953.7344,1121.7656L 951.2344,1121.2656L 950,1121L 947.4688,1120.5098L 944.918,1119.9551L 942.3164,1119.3281L 941,1119L 938.332,1118.334L 937,1118L 934.3184,1117.3271L 931.5977,1116.6172L 928.8184,1115.8389L 926,1115L 924.6113,1114.624L 921.8184,1113.8389L 919,1113L 917.6025,1112.6128L 914.7842,1111.8062L 913.3464,1111.3666L 910.4404,1110.4539L 907.4854,1109.4888L 904.5186,1108.4983L 901.6091,1107.4999L 898.8438,1106.5L 896.2539,1105.5L 895,1105L 893.5879,1104.5L 890.8418,1103.5L 888.2539,1102.5L 887,1102L 885.7344,1101.5L 883.2344,1100.5L 882,1100L 879.5479,1099L 877.2148,1098L 875,1097L 873.7744,1096.5L 872.5811,1096L 870.2668,1095L 869.1796,1094.5L 867.0574,1093.5L 865.0129,1092.5L 863.0017,1091.5L 862,1091L 860.7744,1090.5L 859.5811,1090L 857.2668,1089L 856.1796,1088.5L 854.0574,1087.498L 852.0129,1086.4805L 850.0018,1085.4102L 848.0001,1084.2461L 846,1083L 845,1082.5L 843,1081.498L 841,1080.4805L 839,1079.4102L 837,1078.2461L 835,1077L 834,1076.4824L 832,1075.4102L 830,1074.2461L 828,1073L 827,1072.4297L 826,1071.8389L 824,1070.6172L 822,1069.3271L 820,1068L 819,1067.4297L 818,1066.8389L 816,1065.6172L 814,1064.3271L 813,1063.6636L 811,1062.334L 810,1061.667L 808,1060.3257L 806,1058.9507L 804,1057.5073L 802,1056L 801,1055.3257L 799,1053.9507L 797,1052.5073L 795,1051L 793,1049.5156L 791,1048L 789,1046.5156L 788,1045.7578L 786,1044.2314L 784,1042.6509L 782,1041L 781,1040.2314L 779,1038.6509L 777,1037L 775,1035.5156L 773,1034L 771,1033L 768.332,1032.334L 767,1032L 766,1032L 764.668,1032.334L 762,1033L 760,1034L 759,1034.7656L 757,1036.2656L 756,1037L 755,1038L 754,1039L 753,1040L 752,1041L 751,1042L 750,1043L 749,1044L 748,1045L 747,1046L 746,1047L 745,1048L 744,1049L 743,1050L 742,1051L 741,1052L 740,1053L 739,1054L 738,1055L 737,1056L 736,1057L 735,1058L 734,1059L 733,1060L 732,1061L 731,1062L 730,1063L 729,1064L 728,1065L 727,1066L 726,1067L 725,1068L 724,1069L 723,1070L 722,1071L 721,1072L 720,1073L 719,1074L 718,1075L 717,1076L 716,1077L 715,1078L 713,1079.998L 711,1081.9785L 709,1083.8906L 707,1085.6563L 705,1087.2461L 704,1088L 703,1089L 702,1090L 701,1091L 700,1092L 699,1093L 698,1094L 697,1095L 696,1096L 695,1097L 694,1098L 693,1099L 692,1100L 690,1101.998L 688,1103.9785L 685.9951,1105.8926L 684.9751,1106.7793L 682.8823,1108.4551L 680.6489,1109.9238L 678.2388,1111.1602L 675.6929,1112.1318L 674.4033,1112.4644L 673.127,1112.7068L 670.5995,1113.0029L 669.3568,1112.9625L 666.8928,1112.7095L 665.6937,1112.4296L 664.5235,1112.0906L 663.3845,1111.6968L 662.2756,1111.2487L 660.1127,1110.2403L 658.0553,1108.9983L 656.1167,1107.5132L 654.3447,1105.8087L 652.754,1103.9538L 652,1103L 650.1074,1101L 648.3438,1099L 646.7539,1097L 646,1096L 645.0879,1095L 643.3418,1093L 641.7539,1091L 641,1090L 639.3223,1088L 637.752,1086L 637,1085L 635.3223,1083L 633.752,1081L 633,1080L 631.4902,1078L 630.0449,1076L 628.6719,1074L 628,1073L 626.4902,1071L 625.0449,1069L 624.3584,1068L 623.002,1066L 621.666,1064L 621,1063L 620.2363,1062L 618.7607,1060L 617.4023,1058L 616.1631,1056L 615,1054L 613.6753,1052L 612.3848,1050L 611.1616,1048L 610,1046L 609.376,1045L 608.1611,1043L 607,1041L 606.376,1040L 605.1611,1038L 604,1036ZM 650.0035,1392L 650.0065,1388.0039L 650.0487,1384.0469L 650.2667,1380.2656L 650.9537,1376.9531L 652.4611,1374.4609L 654.9532,1372.9531L 658.2656,1372.2656L 662.0469,1372.0469L 666.0039,1372.0039L 670,1372L 730,1372L 733.9961,1372.002L 737.9551,1372.0234L 741.7559,1372.1328L 743.458,1372.3037L 746.543,1372.8477L 748.9678,1373.8389L 749.8892,1374.562L 751.5581,1376.1743L 752.9868,1378.0352L 754.334,1380.0034L 755,1381L 756.5098,1383L 757.9551,1385L 759.3281,1387L 760,1388L 761.5098,1390L 762.9551,1392L 764.3281,1394L 765,1395L 766.5098,1397L 767.9551,1399L 769.3281,1401L 770,1402L 771.5098,1404L 772.9551,1406L 774.3281,1408L 775,1409L 776.5098,1411L 777.9551,1413L 778.6416,1414L 779.998,1416L 781.334,1418L 782,1419L 783.5098,1421L 784.9551,1423L 786.3281,1425L 787,1426L 788.5098,1428L 789.9551,1430L 791.3281,1432L 792,1433L 793.5098,1435L 794.9551,1437L 796.3281,1439L 797,1440L 798.5098,1442L 799.9551,1444L 801.3281,1446L 802,1447L 803.5098,1449L 804.9551,1451L 806.3281,1453L 807,1454L 808.5098,1456L 809.9551,1458L 810.6416,1459L 811.998,1461L 813.334,1463L 814,1464L 815.5098,1466L 816.9551,1468L 818.3281,1470L 819,1471L 820.5098,1473L 821.9551,1475L 823.3281,1477L 824,1478L 825.5098,1480L 826.9551,1482L 828.3281,1484L 829,1485L 830.5098,1487L 831.9551,1489L 833.3281,1491L 834,1492L 835.5098,1494L 836.9551,1496L 837.6416,1497L 838.998,1499L 840.334,1501L 841,1502L 842.5098,1504L 843.9551,1506L 845.3281,1508L 846,1509L 847.5098,1511L 848.9551,1513L 850.3281,1515L 851,1516L 851.7656,1517L 853.2656,1519L 854,1520L 855,1520L 855,1392L 855.0039,1388.0039L 855.0469,1384.0469L 855.2656,1380.2656L 855.9531,1376.9531L 857.4609,1374.4609L 859.9531,1372.9531L 863.2656,1372.2656L 867.0469,1372.0469L 871.0039,1372.0039L 875,1372L 896,1372L 899.9961,1372.0039L 903.9531,1372.0469L 907.7344,1372.2656L 911.0469,1372.9531L 913.5391,1374.4609L 915.0469,1376.9531L 915.7344,1380.2656L 915.9531,1384.0469L 915.9961,1388.0039L 916,1392L 916,1549L 915.9961,1552.9961L 915.9531,1556.9531L 915.7344,1560.7344L 915.0469,1564.0469L 913.5391,1566.5391L 911.0469,1568.0469L 907.7344,1568.7344L 903.9531,1568.9531L 899.9961,1568.9961L 896,1569L 836,1569L 832.0039,1568.998L 830.0234,1568.9873L 828.0781,1568.9546L 824.3066,1568.8086L 820.875,1568.4209L 819.4189,1568.0339L 816.8057,1567.0352L 814.7471,1565.6184L 813.1021,1563.8865L 811.6792,1561.9797L 811,1561L 809.4902,1559L 808.0449,1557L 806.6719,1555L 806,1554L 804.4902,1552L 803.0449,1550L 801.6719,1548L 801,1547L 799.4902,1545L 798.0449,1543L 796.6719,1541L 796,1540L 794.4902,1538L 793.0449,1536L 791.6719,1534L 791,1533L 789.4902,1531L 788.0449,1529L 787.3584,1528L 786.002,1526L 784.666,1524L 784,1523L 782.4902,1521L 781.0449,1519L 779.6719,1517L 779,1516L 777.4902,1514L 776.0449,1512L 774.6719,1510L 774,1509L 772.4902,1507L 771.0449,1505L 769.6719,1503L 769,1502L 767.4902,1500L 766.0449,1498L 764.6719,1496L 764,1495L 762.4902,1493L 761.0449,1491L 759.6719,1489L 759,1488L 757.4902,1486L 756.0449,1484L 754.6719,1482L 754,1481L 752.4902,1479L 751.0449,1477L 749.6719,1475L 749,1474L 747.4902,1472L 746.0449,1470L 744.6719,1468L 744,1467L 742.4902,1465L 741.0449,1463L 739.6719,1461L 739,1460L 737.4902,1458L 736.0449,1456L 734.6719,1454L 734,1453L 732.4902,1451L 731.0449,1449L 729.6719,1447L 729,1446L 727.4902,1444L 726.0449,1442L 724.6719,1440L 724,1439L 722.4902,1437L 721.0449,1435L 720.3584,1434L 719.002,1432L 717.666,1430L 717,1429L 715.4902,1427L 714.0449,1425L 712.6719,1423L 712,1422L 711,1422L 711,1549L 710.9961,1552.9961L 710.9531,1556.9531L 710.7344,1560.7344L 710.0469,1564.0469L 708.5391,1566.5391L 706.0469,1568.0469L 702.7344,1568.7344L 698.9531,1568.9531L 694.9961,1568.9961L 691,1569L 670,1569L 666.0039,1568.9961L 662.0473,1568.9531L 658.2678,1568.7344L 654.9601,1568.0469L 652.4762,1566.5391L 650.9782,1564.047L 650.2986,1560.7345L 650.0841,1556.9533L 650.0422,1552.9962L 650.0378,1549.0001ZM 984,1568.96L 980.0039,1568.9664L 976.0469,1568.9331L 972.2656,1568.7226L 968.9531,1568.0411L 966.4609,1566.5369L 964.9531,1564.0463L 964.2656,1560.7343L 964.0469,1556.9531L 964.0039,1552.9961L 964,1549L 964,1392L 964.0039,1388.0039L 964.0469,1384.0469L 964.2656,1380.2656L 964.9531,1376.9531L 966.4609,1374.4609L 968.9531,1372.9531L 972.2656,1372.2656L 976.0469,1372.0469L 980.0039,1372.0039L 984,1372L 1006,1372L 1009.9961,1372.0039L 1013.9531,1372.0469L 1017.7344,1372.2656L 1021.0469,1372.9531L 1023.5391,1374.4609L 1025.0469,1376.9531L 1025.7344,1380.2656L 1025.9531,1384.0469L 1025.9961,1388.0039L 1026,1392L 1026,1549L 1025.9961,1552.996L 1025.9531,1556.9517L 1025.7345,1560.7274L 1025.0472,1564.0249L 1023.5397,1566.4914L 1021.0478,1567.9694L 1017.7356,1568.6344L 1013.9544,1568.8443L 1009.9975,1568.89L 1006.0014,1568.9023ZM 1068.0879,1427.1758L 1068.3418,1423.6836L 1068.7539,1420.5078L 1069,1419L 1069.1611,1417.5703L 1069.5439,1414.752L 1069.7998,1413.3828L 1070.3677,1410.668L 1070.6997,1409.3232L 1071.4048,1406.644L 1071.8002,1405.3315L 1072.6343,1402.7715L 1073.5481,1400.3672L 1074.5308,1398.1357L 1075.0612,1397.0859L 1075.6192,1396.0535L 1076.2088,1395.0329L 1076.8335,1394.0199L 1077.4967,1393.0119L 1078.9044,1391.0042L 1079.6917,1390.013L 1081.3464,1388.0665L 1083.1455,1386.2383L 1085.0492,1384.6143L 1086.0308,1383.9204L 1088.0345,1382.6016L 1090.1689,1381.3643L 1091.3286,1380.7661L 1093.7129,1379.6104L 1096.1875,1378.5474L 1098.7188,1377.5933L 1100.0225,1377.1736L 1102.6582,1376.3838L 1103.9927,1376.0283L 1106.6343,1375.3491L 1109.2051,1374.7471L 1111.7344,1374.2344L 1114.4688,1373.7344L 1117.4688,1373.2344L 1119,1373L 1120.4453,1372.7539L 1123.3945,1372.3418L 1126.4492,1372.0879L 1128,1372L 1129.5078,1371.7539L 1132.6875,1371.3438L 1136.1563,1371.1094L 1139.668,1371.0215L 1143,1371L 1144.5078,1370.7539L 1147.6875,1370.3438L 1151.2188,1370.1094L 1155.043,1370.0215L 1159.0039,1370.002L 1163,1370L 1230,1370L 1233.9961,1370.002L 1237.957,1370.0215L 1241.7813,1370.1094L 1245.3125,1370.3438L 1248.4922,1370.7539L 1250,1371L 1251.9609,1371.0195L 1255.7813,1371.1094L 1259.3125,1371.3438L 1262.4922,1371.7539L 1264,1372L 1265.8242,1372.0879L 1269.3164,1372.3418L 1272.4922,1372.7539L 1274,1373L 1275.5313,1373.2344L 1278.5313,1373.7344L 1279.8984,1373.9844L 1282.5313,1374.4902L 1283.8066,1374.7676L 1286.3877,1375.3618L 1289.0293,1376.0313L 1291.6924,1376.7778L 1292.9922,1377.1953L 1294.2717,1377.6356L 1296.8037,1378.5645L 1299.2832,1379.5999L 1300.484,1380.1774L 1301.6456,1380.7716L 1302.7658,1381.3776L 1303.85,1382L 1304.9064,1382.6474L 1305.9428,1383.3284L 1307.9865,1384.77L 1309.9774,1386.381L 1310.934,1387.2686L 1311.8537,1388.1862L 1313.6079,1390.0679L 1314.3955,1391.0439L 1315.1387,1392.028L 1316.542,1394.0112L 1317.1677,1395.0258L 1318.3596,1397.1121L 1318.9065,1398.2387L 1319.4368,1399.4212L 1320.4608,1401.878L 1321.3869,1404.4648L 1322.1558,1407.0859L 1322.7461,1409.6973L 1323,1411L 1323.2656,1412.2344L 1323.7656,1414.7344L 1324.248,1417.5039L 1324.6777,1420.6445L 1325,1424L 1325.2461,1425.5078L 1325.6563,1428.6875L 1325.8906,1432.2188L 1325.9785,1435.918L 1325.998,1439.3789L 1326,1441L 1326.2461,1442.5078L 1326.6563,1445.6875L 1326.8906,1449.2188L 1326.9785,1453.043L 1326.998,1457.0039L 1327,1461L 1327,1480L 1326.998,1483.9961L 1326.9785,1487.957L 1326.8906,1491.7813L 1326.6563,1495.3125L 1326.2461,1498.4922L 1326,1500L 1325.998,1501.6211L 1325.9785,1505.082L 1325.8906,1508.7813L 1325.6563,1512.3125L 1325.2461,1515.4922L 1325,1517L 1324.6777,1520.3555L 1324.248,1523.4961L 1324,1525L 1323.7637,1526.5313L 1323.5015,1528.0244L 1322.918,1530.9453L 1322.5647,1532.356L 1321.7986,1535.146L 1321.3625,1536.4995L 1320.4536,1539.1328L 1319.4868,1541.5898L 1318.4788,1543.8506L 1317.9444,1544.9059L 1317.384,1545.9417L 1316.7931,1546.9643L 1315.542,1548.9906L 1314.1387,1550.9775L 1312.5634,1552.8906L 1310.8212,1554.6563L 1309.8884,1555.4512L 1308.9331,1556.2236L 1306.9889,1557.7236L 1305.9944,1558.418L 1303.9961,1559.7332L 1302.9785,1560.3204L 1300.8887,1561.4426L 1298.6387,1562.4851L 1296.166,1563.4786L 1293.5059,1564.41L 1292.1328,1564.8281L 1290.7627,1565.2221L 1288.0347,1565.9707L 1285.3091,1566.6479L 1282.5,1567.25L 1279.5293,1567.7646L 1278,1568L 1276.6367,1568.248L 1273.8594,1568.6777L 1271,1569L 1269.4922,1569.2461L 1266.3164,1569.6582L 1262.8242,1569.9121L 1261,1570L 1259.4922,1570.2461L 1256.3125,1570.6563L 1252.7813,1570.8906L 1248.957,1570.9785L 1245.2461,1570.998L 1242,1571L 1240.4922,1571.2461L 1237.3125,1571.6563L 1233.7813,1571.8906L 1229.957,1571.9785L 1225.9961,1571.998L 1222,1572L 1170,1572L 1166.0039,1571.998L 1162.043,1571.9785L 1158.2188,1571.8906L 1154.6875,1571.6563L 1151.5078,1571.2461L 1150,1571L 1148.0039,1570.998L 1144.043,1570.9785L 1140.2188,1570.8906L 1136.6875,1570.6563L 1133.5078,1570.2461L 1132,1570L 1130.1758,1569.9121L 1126.6836,1569.6582L 1123.5078,1569.2461L 1122,1569L 1119.1406,1568.6777L 1116.3633,1568.248L 1115,1568L 1111.9805,1567.5098L 1109.0898,1566.9551L 1107.71,1566.6382L 1104.9648,1565.9688L 1103.5923,1565.5955L 1100.8472,1564.8044L 1099.4971,1564.3657L 1096.8672,1563.4519L 1094.4102,1562.4692L 1093.2798,1561.9388L 1091.0941,1560.8272L 1090.0583,1560.2217L 1089.0357,1559.595L 1087.0094,1558.3L 1085.0225,1556.9128L 1083.1094,1555.4016L 1081.3438,1553.7349L 1080.5488,1552.8325L 1079.7764,1551.8988L 1079.0264,1550.9407L 1077.582,1548.9874L 1076.9244,1547.9742L 1075.6796,1545.8887L 1075.1185,1544.7617L 1074.0352,1542.3848L 1073.5213,1541.0732L 1072.5159,1538.3672L 1071.5904,1535.5898L 1070.8242,1532.8882L 1070.2461,1530.2847L 1069.7344,1527.5313L 1069.2344,1524.5313L 1069,1523L 1068.7539,1521.5078L 1068.3438,1518.4375L 1068.1074,1515.2383L 1068,1512L 1067.7539,1510.4922L 1067.3438,1507.3125L 1067.1094,1503.7813L 1067.0215,1499.957L 1067.002,1495.9961L 1067,1492L 1067,1449L 1067.002,1445.0039L 1067.0215,1441.043L 1067.1094,1437.2188L 1067.3438,1433.6875L 1067.7539,1430.5078L 1068,1429ZM 1377.0035,1392L 1377.0065,1388.0039L 1377.0487,1384.0469L 1377.2667,1380.2656L 1377.9537,1376.9531L 1379.4611,1374.4609L 1381.9532,1372.9531L 1385.2656,1372.2656L 1389.0469,1372.0469L 1393.0039,1372.0039L 1397,1372L 1456,1372L 1459.9961,1372.002L 1461.9766,1372.0127L 1465.8652,1372.0781L 1469.502,1372.3047L 1471.0811,1372.5786L 1473.9199,1373.3506L 1476.1396,1374.5718L 1477.8652,1376.1816L 1479.3154,1378.0342L 1480,1379L 1481.5098,1381L 1482.9551,1383L 1484.3281,1385L 1485,1386L 1486.5098,1388L 1487.9551,1390L 1489.3281,1392L 1490,1393L 1491.5098,1395L 1492.9551,1397L 1494.3281,1399L 1495,1400L 1496.5098,1402L 1497.9551,1404L 1499.3281,1406L 1500,1407L 1501.5098,1409L 1502.9551,1411L 1504.3281,1413L 1505,1414L 1506.5098,1416L 1507.9551,1418L 1508.6416,1419L 1509.998,1421L 1511.334,1423L 1512,1424L 1513.5098,1426L 1514.9551,1428L 1516.3281,1430L 1517,1431L 1518.5098,1433L 1519.9551,1435L 1521.3281,1437L 1522,1438L 1523.5098,1440L 1524.9551,1442L 1526.3281,1444L 1527,1445L 1528.5098,1447L 1529.9551,1449L 1531.3281,1451L 1532,1452L 1533.5098,1454L 1534.9551,1456L 1535.6416,1457L 1536.998,1459L 1538.334,1461L 1539,1462L 1540.5098,1464L 1541.9551,1466L 1543.3281,1468L 1544,1469L 1545.5098,1471L 1546.9551,1473L 1548.3281,1475L 1549,1476L 1550.5098,1478L 1551.9551,1480L 1553.3281,1482L 1554,1483L 1555.5098,1485L 1556.9551,1487L 1558.3281,1489L 1559,1490L 1560.5098,1492L 1561.9551,1494L 1562.6416,1495L 1563.998,1497L 1565.334,1499L 1566,1500L 1567.5098,1502L 1568.9551,1504L 1570.3281,1506L 1571,1507L 1572.5098,1509L 1573.9551,1511L 1575.3281,1513L 1576,1514L 1576.7656,1515L 1578.2656,1517L 1579,1518L 1580,1519L 1581,1519L 1581,1392L 1581.0039,1388.0039L 1581.0469,1384.0469L 1581.2656,1380.2656L 1581.9531,1376.9531L 1583.4609,1374.4609L 1585.9531,1372.9531L 1589.2656,1372.2656L 1593.0469,1372.0469L 1597.0039,1372.0039L 1601,1372L 1622,1372L 1625.9961,1372.0039L 1629.9531,1372.0469L 1633.7344,1372.2656L 1637.0469,1372.9531L 1639.5391,1374.4609L 1641.0469,1376.9531L 1641.7344,1380.2656L 1641.9531,1384.0469L 1641.9961,1388.0039L 1642,1392L 1642,1549L 1641.9961,1552.9961L 1641.9531,1556.9531L 1641.7344,1560.7344L 1641.0469,1564.0469L 1639.5391,1566.5391L 1637.0469,1568.0469L 1633.7344,1568.7344L 1629.9531,1568.9531L 1625.9961,1568.9961L 1622,1569L 1562,1569L 1558.0039,1568.998L 1554.0449,1568.9766L 1550.2441,1568.8672L 1548.542,1568.6963L 1546.9966,1568.4243L 1544.2212,1567.6567L 1542.0269,1566.438L 1541.1436,1565.6318L 1539.4995,1563.8953L 1538.0403,1561.9807L 1536.6709,1559.9983L 1536,1559L 1534.4902,1557L 1533.0449,1555L 1531.6719,1553L 1531,1552L 1529.4902,1550L 1528.0449,1548L 1526.6719,1546L 1526,1545L 1524.4902,1543L 1523.0449,1541L 1521.6719,1539L 1521,1538L 1519.4902,1536L 1518.0449,1534L 1516.6719,1532L 1516,1531L 1514.4902,1529L 1513.0449,1527L 1512.3584,1526L 1511.002,1524L 1509.666,1522L 1509,1521L 1507.4902,1519L 1506.0449,1517L 1504.6719,1515L 1504,1514L 1502.4902,1512L 1501.0449,1510L 1499.6719,1508L 1499,1507L 1497.4902,1505L 1496.0449,1503L 1494.6719,1501L 1494,1500L 1492.4902,1498L 1491.0449,1496L 1489.6719,1494L 1489,1493L 1487.4902,1491L 1486.0449,1489L 1484.6719,1487L 1484,1486L 1482.4902,1484L 1481.0449,1482L 1479.6719,1480L 1479,1479L 1477.4902,1477L 1476.0449,1475L 1474.6719,1473L 1474,1472L 1472.4902,1470L 1471.0449,1468L 1469.6719,1466L 1469,1465L 1467.4902,1463L 1466.0449,1461L 1464.6719,1459L 1464,1458L 1462.4902,1456L 1461.0449,1454L 1459.6719,1452L 1459,1451L 1457.4902,1449L 1456.0449,1447L 1454.6719,1445L 1454,1444L 1452.4902,1442L 1451.0449,1440L 1450.3584,1439L 1449.002,1437L 1447.666,1435L 1447,1434L 1445.4902,1432L 1444.0449,1430L 1442.6719,1428L 1442,1427L 1441.2344,1426L 1439.7344,1424L 1439,1423L 1438,1423L 1438,1549L 1437.9961,1552.9961L 1437.9531,1556.9531L 1437.7344,1560.7344L 1437.0469,1564.0469L 1435.5391,1566.5391L 1433.0469,1568.0469L 1429.7344,1568.7344L 1425.9531,1568.9531L 1421.9961,1568.9961L 1418,1569L 1397,1569L 1393.0039,1568.9961L 1389.0473,1568.9531L 1385.2678,1568.7344L 1381.9601,1568.0469L 1379.4762,1566.5391L 1377.9782,1564.047L 1377.2986,1560.7345L 1377.0841,1556.9533L 1377.0422,1552.9962L 1377.0378,1549.0001Z" style="fill:rgb(255,255,255);"/>
<path d="M 765,978L 768,979L 772,979L 775,978L 777,977L 778,976L 779,975L 780,974L 781,973L 782,972L 783,971L 784,970L 785,969L 786,968L 787,967L 788,966L 789,965L 790,964L 791,963L 792,962L 793,961L 794,960L 795,959L 796,958L 797,957L 798,956L 799,955L 800,954L 801,953L 802,952L 803,951L 804,950L 805,949L 807,947.002L 809,945.0215L 811,943.1094L 813,941.3438L 815,939.7539L 816,939L 817,938L 818,937L 819,936L 820,935L 821,934L 822,933L 823,932L 824,931L 825,930L 826,929L 827,928L 828,927L 829,926L 830,925L 831,924L 832,923L 833,922L 834,921L 835,920L 836,919L 837,918L 838,917L 839,916L 840,915L 841,914L 842,913L 843,912L 844,911L 845,910L 846,909L 847,908L 848,907L 849,906L 850,905L 851,904L 852,903L 853,902L 854,901.002L 855,900.0146L 856,899.0581L 857,898.1638L 858,897.3702L 859,896.7156L 860,896.2312L 862,895.6421L 864,895.8384L 866,896.7751L 868,898.2517L 870,900L 871,900.8036L 873,902.4545L 875,904.2096L 877,906.0726L 879,908L 881,909.5776L 883,911.2444L 885,913L 887,914.4844L 889,916L 891,917.4844L 893,919L 894,919.6743L 896,921.0493L 898,922.4927L 900,924L 901,924.666L 903,926L 904,926.5703L 905,927.1611L 907,928.3828L 909,929.6729L 911,931L 912,931.5703L 914,932.752L 916,934L 918,935L 920,936L 922,937L 924,938L 926,939L 928,940L 930,941L 932,942L 934,943L 936,944L 938,945L 940.4521,946L 942.7852,947L 945,948L 946.4121,948.5L 949.1582,949.5L 951.7461,950.5L 953,951L 956,952L 959,953L 962,954L 965,955L 966.3887,955.376L 969.1816,956.1611L 972,957L 974.668,957.666L 976,958L 978.668,958.666L 980,959L 981.2656,959.2344L 983.7656,959.7344L 985,960L 986.2656,960.2344L 988.7656,960.7344L 990,961L 991.2656,961.2344L 993.7656,961.7344L 995,962L 997.8594,962.3223L 1000.6367,962.752L 1002,963L 1005.3555,963.3223L 1008.4961,963.752L 1010,964L 1013.7852,964.1074L 1017.3125,964.3438L 1020.4922,964.7539L 1022,965L 1047,965L 1048.5078,964.7539L 1051.6563,964.3438L 1055,964.1094L 1058.3516,964.0195L 1060,964L 1061.5039,963.752L 1064.6445,963.3223L 1068,963L 1069.3633,962.752L 1072.1406,962.3223L 1075,962L 1076.2344,961.7344L 1078.7344,961.2344L 1080,961L 1081.2344,960.7344L 1083.7344,960.2344L 1085,960L 1086.2344,959.7344L 1088.7344,959.2344L 1090,959L 1091.332,958.666L 1094,958L 1095.332,957.666L 1098,957L 1099.4727,956.5176L 1102.3828,955.5898L 1105.2188,954.7539L 1108,954L 1111,953L 1114,952L 1115.2539,951.5L 1117.8418,950.5L 1120.5879,949.5L 1122,949L 1124.4688,948L 1127,947L 1129.1758,946L 1131.5078,945L 1134,944L 1136,943L 1138,942L 1140,941L 1142,940L 1144,939L 1146,938L 1148,937L 1150,936L 1152,934.7744L 1154,933.6128L 1156,932.5269L 1157,932L 1158,931.376L 1160,930.1611L 1162,929L 1164,927.666L 1165,927L 1167,925.666L 1168,925L 1170,923.666L 1171,923L 1173,921.666L 1174,921L 1175,920.2344L 1177,918.7344L 1178,918L 1179,917.2344L 1181,915.7344L 1182,915L 1183,914.2344L 1185,912.7344L 1186,912L 1187,911.0879L 1189,909.3418L 1191,907.7539L 1192,907L 1193,906L 1194,905L 1195,904L 1196,903L 1197,902L 1198,901L 1199,900L 1200,899L 1201,898L 1202,897L 1203,896L 1204,895L 1205,894L 1206,893L 1207,892L 1208,891L 1209,890L 1210,889L 1211,888L 1212,887L 1213,886L 1214,885L 1215,884L 1216,883L 1217,882L 1218,881L 1218.7686,880L 1220.3491,878L 1222,876L 1222.7686,875L 1224.3491,873L 1226,871L 1227.4844,869L 1229,867L 1230.4844,865L 1232,863L 1232.666,862L 1234,860L 1234.666,859L 1236,857L 1236.666,856L 1238,854L 1238.666,853L 1240,851L 1240.5703,850L 1241.752,848L 1243,846L 1243.5176,845L 1244.5898,843L 1245.7539,841L 1247,839L 1248,837L 1249,835L 1250,833L 1251,831L 1252,829L 1253,827L 1254,825L 1255,823L 1256,820.5479L 1257,818.2148L 1258,816L 1258.5,814.7344L 1259.5,812.2344L 1260,811L 1261,808L 1262,805L 1263,802L 1264,799L 1265,796L 1266,793L 1267,790L 1267.666,787.332L 1268,786L 1268.666,783.332L 1269,782L 1269.666,779.332L 1270,778L 1270.2344,776.7344L 1270.7344,774.2344L 1271,773L 1271.2344,771.7344L 1271.7344,769.2344L 1272,768L 1272.2344,766.7344L 1272.7344,764.2344L 1273,763L 1273.3223,760.1406L 1273.752,757.3633L 1274,756L 1274.0879,754.4492L 1274.3418,751.3945L 1274.7539,748.4453L 1275,747L 1275.002,745.3789L 1275.0215,741.918L 1275.1094,738.2188L 1275.3438,734.6875L 1275.7539,731.5078L 1276,730L 1276,720L 1275.7539,718.4922L 1275.3438,715.3125L 1275.1094,711.7813L 1275.0215,707.957L 1275.002,703.9961L 1275,702L 1274.7539,700.5547L 1274.3418,697.6055L 1274.0879,694.5508L 1274,693L 1273.752,691.6367L 1273.3223,688.8594L 1273,686L 1272.7344,684.7656L 1272.2344,682.2656L 1272,681L 1271.7344,679.7656L 1271.2344,677.2656L 1271,676L 1270.7344,674.7656L 1270.2344,672.2656L 1270,671L 1269.666,669.668L 1269,667L 1268.666,665.668L 1268,663L 1267.666,661.668L 1267,659L 1266,656L 1265,653L 1264,650L 1263,647L 1262,644L 1261,641L 1260,638L 1259,635.5313L 1258,633L 1257,630.8242L 1256,628.4922L 1255,626L 1254,624L 1253,622L 1252,620L 1251,618L 1250,616L 1249,614L 1248,612L 1247,610L 1245.7744,608L 1244.6128,606L 1243.5269,604L 1243,603L 1242.376,602L 1241.1611,600L 1240,598L 1238.666,596L 1238,595L 1236.666,593L 1236,592L 1234.666,590L 1234,589L 1233,588L 1232,587L 1231,586L 1230,585L 1228,584L 1220,584L 1218,585L 1216,586L 1215,587L 1214,588L 1213,589L 1212,590L 1211,591L 1210,592L 1209,593L 1208,594L 1207,595L 1206,596L 1205,597L 1204,598L 1203,599L 1202,600L 1201,601L 1200,602L 1199,603L 1198,604L 1197,605L 1196,606L 1195,607L 1194,608L 1193,609L 1192,610L 1191,611L 1190,612L 1189,613L 1188,614L 1187,615L 1186,616L 1185,617L 1184,618L 1183,619L 1182,620L 1181,621L 1179,622.998L 1177,624.9785L 1175,626.8906L 1173,628.6563L 1171,630.2461L 1170,631L 1169,632L 1168,633L 1167,634L 1166,635L 1165,636L 1164,637L 1163,638L 1162,639L 1161,640L 1160,641L 1159,642L 1158,643L 1157,644L 1156,645L 1155,646L 1154,647L 1153,648L 1152,649L 1151,650L 1150,651L 1149,652L 1148,653L 1147,654L 1146,655L 1145,656L 1144,657L 1143,658L 1142,659L 1141,660L 1140,660.999L 1139,661.9917L 1138,662.9636L 1137,663.889L 1136,664.733L 1135,665.4571L 1134,666.0266L 1133,666.4161L 1132,666.6124L 1131,666.6152L 1130,666.4343L 1129,666.0876L 1128,665.5971L 1127,664.9862L 1126,664.2776L 1125,663.4921L 1123,661.8026L 1121,659.9347L 1119,657.9821L 1117,655.9961L 1115,654L 1113,652.4224L 1111,650.7556L 1109,649L 1108,648.2314L 1106,646.6509L 1104,645L 1102,643.5156L 1100,642L 1098,640.5156L 1096,639L 1095,638.334L 1093,637L 1092,636.334L 1090,635L 1089,634.334L 1087,633L 1086,632.334L 1084,631L 1083,630.4297L 1081,629.248L 1079,628L 1078,627.4297L 1076,626.248L 1074,625L 1072,624L 1070,623L 1068,622L 1066,621L 1064,620L 1062,619L 1060,618L 1058,617L 1056,616L 1053.5479,615L 1051.2148,614L 1049,613L 1047.7344,612.5L 1045.2344,611.5L 1044,611L 1042.7344,610.5L 1040.2344,609.5L 1039,609L 1036,608L 1033,607L 1030,606L 1027,605L 1025.6113,604.624L 1022.8184,603.8389L 1020,603L 1017.332,602.334L 1016,602L 1013.332,601.334L 1012,601L 1010.7344,600.7656L 1008.2344,600.2656L 1007,600L 1005.7344,599.7656L 1003.2344,599.2656L 1002,599L 1000.7344,598.7656L 998.2344,598.2656L 997,598L 994.1406,597.6777L 991.3633,597.248L 990,597L 986.6445,596.6777L 983.5039,596.248L 982,596L 978.2148,595.8926L 974.6875,595.6563L 971.5078,595.2461L 970,595L 944,595L 942.4922,595.2461L 939.3438,595.6563L 936,595.8906L 932.6484,595.9805L 931,596L 929.4961,596.248L 926.3555,596.6777L 923,597L 921.5313,597.2656L 918.5313,597.7656L 917,598L 915.5313,598.2656L 912.5313,598.7656L 911,599L 909.7656,599.2656L 907.2656,599.7656L 906,600L 904.668,600.334L 902,601L 900.668,601.334L 898,602L 896.668,602.334L 894,603L 892.5859,603.4297L 889.7773,604.248L 887,605L 884,606L 881,607L 878,608L 875,609L 873.7461,609.5L 871.1582,610.5L 868.4121,611.5L 867,612L 864.8242,613L 862.4922,614L 860,615L 858,616L 856,617L 854,618L 852,619L 850,620L 848,621L 846,622L 844,623L 842,624L 840,625L 838,626L 837,626.624L 835,627.8389L 833,629L 832,629.624L 830,630.8389L 828,632L 826,633.334L 825,634L 823,635.334L 822,636L 820,637.334L 819,638L 818,638.7656L 816,640.2656L 815,641L 814,641.7656L 812,643.2656L 811,644L 810,644.7656L 808,646.2656L 807,647L 806,647.9121L 804,649.6582L 802,651.2461L 801,652L 800,652.9805L 798,654.8906L 796,656.6563L 794,658.2461L 793,659L 792,660L 791,661L 790,662L 789,663L 788,664L 787,665L 786,666L 785,667L 784,668L 783,669L 782,670L 781,671L 780,672L 779,673L 777.3928,675L 775.6992,677L 773.8889,679L 772,681L 771.2314,682L 769.6509,684L 768,686L 767.2314,687L 765.6509,689L 764,691L 763.3257,692L 761.9507,694L 760.5073,696L 759,698L 758.334,699L 757,701L 756.334,702L 755,704L 754.334,705L 753,707L 752.334,708L 751,710L 750.4297,711L 749.248,713L 748,715L 747.498,716L 746.4805,718L 745.4102,720L 744.2461,722L 743,724L 742,726L 741,728L 740,730L 739,732L 738.5,733.2256L 737.5,735.6123L 736.5,737.8545L 735.5,739.9678L 735,741L 734.5,742.2656L 733.5,744.7656L 733,746L 732.5,747.2656L 731.5,749.7656L 731,751L 730,754L 729,757L 728,760L 727,763L 726,766L 725,769L 724.334,771.668L 724,773L 723.334,775.668L 723,777L 722.334,779.668L 722,781L 721.334,783.668L 721,785L 720.7656,786.2656L 720.2656,788.7656L 720,790L 719.7656,791.5313L 719.2656,794.5313L 719,796L 718.7656,797.5313L 718.2656,800.5313L 718,802L 717.6777,805.3555L 717.248,808.4961L 717,810L 716.9805,811.6484L 716.8906,815L 716.6563,818.3438L 716.2461,821.4922L 716,823L 716,847L 716.2461,848.5078L 716.6563,851.6563L 716.8906,855L 716.9805,858.3516L 717,860L 717.248,861.5039L 717.6777,864.6445L 718,868L 718.248,869.3633L 718.6777,872.1406L 719,875L 719.2656,876.4688L 719.7656,879.4688L 720,881L 720.6543,883.6367L 721.2529,886.2051L 721.7656,888.7344L 722,890L 722.334,891.332L 723,894L 723.334,895.332L 724,898L 724.4297,899.4141L 725.248,902.2227L 726,905L 727,908L 728,911L 729,914L 730,917L 731,920L 732,922.4688L 733,925L 734,927.1758L 735,929.5078L 736,932L 737,934L 738,936L 739,938L 740,940L 741,942L 742,944L 743,946L 744,948L 745,950L 746,952L 747,954L 747.624,955L 748.8389,957L 750,959L 750.624,960L 751.8389,962L 753,964L 754.334,966L 755,967L 756.334,969L 757,970L 758.334,972L 759,973L 760,974L 761,975L 762,976L 763,977Z" style="fill:rgb(255,255,255);"/>
<path d="M 1139,1516L 1141,1517L 1144,1518L 1146.668,1518.666L 1148,1519L 1150.8594,1519.3223L 1153.6367,1519.752L 1155,1520L 1238,1520L 1239.3633,1519.752L 1242.1406,1519.3223L 1245,1519L 1246.332,1518.666L 1249,1518L 1252,1517L 1255,1516L 1257,1514.666L 1258,1514L 1259,1513L 1260,1512L 1260.666,1511L 1262,1509L 1263,1507L 1264,1504L 1264.2344,1502.7344L 1264.7344,1500.2344L 1265,1499L 1265.002,1497.3789L 1265.0215,1493.918L 1265.1094,1490.2188L 1265.3438,1486.6875L 1265.7539,1483.5078L 1266,1482L 1266,1460L 1265.7539,1458.4922L 1265.3438,1455.3125L 1265.1094,1451.7813L 1265.0215,1448.082L 1265.002,1444.6211L 1265,1443L 1264.7344,1441.7656L 1264.2344,1439.2656L 1264,1438L 1263,1435L 1262,1433L 1261,1431L 1260,1430L 1259,1429L 1258,1428L 1257,1427L 1255,1426L 1253,1425L 1251,1424L 1248.332,1423.334L 1247,1423L 1245.4688,1422.7656L 1242.4688,1422.2656L 1241,1422L 1239.0391,1421.9805L 1235.2188,1421.8906L 1231.6875,1421.6563L 1228.5078,1421.2461L 1227,1421L 1167,1421L 1165.4922,1421.2461L 1162.3125,1421.6563L 1158.7813,1421.8906L 1154.9609,1421.9805L 1153,1422L 1151.5313,1422.2656L 1148.5313,1422.7656L 1147,1423L 1145.668,1423.334L 1143,1424L 1140,1425L 1138,1426L 1136,1427.334L 1135,1428L 1134,1429L 1133.334,1430L 1132,1432L 1131,1434L 1130,1436L 1129.334,1438.668L 1129,1440L 1128.7656,1441.5313L 1128.2656,1444.5313L 1128,1446L 1128,1496L 1128.2656,1497.4688L 1128.7656,1500.4688L 1129,1502L 1129.334,1503.332L 1130,1506L 1131,1508L 1132,1510L 1133,1511L 1134,1512L 1135,1513L 1136,1514L 1137,1515Z" style="fill:rgb(255,255,255);"/>
</svg>